<svg xmlns="http://www.w3.org/2000/svg" viewBox="0 0 800 600">
  <defs>
    <radialGradient id="nebula1" cx="0.25" cy="0.35" r="0.45">
      <stop offset="0%" stop-color="#4A148C" stop-opacity="0.35"/>
      <stop offset="60%" stop-color="#1A237E" stop-opacity="0.15"/>
      <stop offset="100%" stop-color="#020010" stop-opacity="0"/>
    </radialGradient>
    <radialGradient id="nebula2" cx="0.72" cy="0.55" r="0.38">
      <stop offset="0%" stop-color="#7B1FA2" stop-opacity="0.28"/>
      <stop offset="55%" stop-color="#0D47A1" stop-opacity="0.12"/>
      <stop offset="100%" stop-color="#020010" stop-opacity="0"/>
    </radialGradient>
    <radialGradient id="nebula3" cx="0.5" cy="0.25" r="0.32">
      <stop offset="0%" stop-color="#0D47A1" stop-opacity="0.25"/>
      <stop offset="70%" stop-color="#006064" stop-opacity="0.08"/>
      <stop offset="100%" stop-color="#020010" stop-opacity="0"/>
    </radialGradient>
    <radialGradient id="nebula4" cx="0.15" cy="0.7" r="0.28">
      <stop offset="0%" stop-color="#311B92" stop-opacity="0.22"/>
      <stop offset="100%" stop-color="#020010" stop-opacity="0"/>
    </radialGradient>
    <radialGradient id="nebula5" cx="0.85" cy="0.3" r="0.25">
      <stop offset="0%" stop-color="#006064" stop-opacity="0.2"/>
      <stop offset="100%" stop-color="#020010" stop-opacity="0"/>
    </radialGradient>
  </defs>
  <rect width="800" height="600" fill="#020010"/>
  <rect width="800" height="600" fill="url(#nebula1)"/>
  <rect width="800" height="600" fill="url(#nebula2)"/>
  <rect width="800" height="600" fill="url(#nebula3)"/>
  <rect width="800" height="600" fill="url(#nebula4)"/>
  <rect width="800" height="600" fill="url(#nebula5)"/>
  <ellipse cx="300" cy="280" rx="180" ry="8" fill="#7B1FA2" opacity="0.08" transform="rotate(-12 300 280)"/>
  <ellipse cx="550" cy="380" rx="150" ry="6" fill="#0097A7" opacity="0.06" transform="rotate(8 550 380)"/>
  <ellipse cx="200" cy="450" rx="120" ry="5" fill="#4A148C" opacity="0.07" transform="rotate(-5 200 450)"/>
  <circle cx="120" cy="80" r="1.2" fill="#FFFFFF" opacity="0.7"/>
  <circle cx="310" cy="45" r="0.8" fill="#E8EAF6" opacity="0.6"/>
  <circle cx="540" cy="90" r="1.0" fill="#FFFFFF" opacity="0.55"/>
  <circle cx="680" cy="60" r="0.7" fill="#BBDEFB" opacity="0.5"/>
  <circle cx="80" cy="200" r="1.3" fill="#FFFFFF" opacity="0.65"/>
  <circle cx="400" cy="180" r="0.9" fill="#E8EAF6" opacity="0.45"/>
  <circle cx="620" cy="230" r="1.1" fill="#FFFFFF" opacity="0.5"/>
  <circle cx="200" cy="320" r="0.6" fill="#BBDEFB" opacity="0.4"/>
  <circle cx="460" cy="350" r="1.0" fill="#FFFFFF" opacity="0.55"/>
  <circle cx="720" cy="300" r="0.8" fill="#E8EAF6" opacity="0.5"/>
  <circle cx="50" cy="450" r="1.1" fill="#FFFFFF" opacity="0.6"/>
  <circle cx="350" cy="480" r="0.7" fill="#FFFFFF" opacity="0.45"/>
  <circle cx="560" cy="520" r="1.2" fill="#BBDEFB" opacity="0.5"/>
  <circle cx="750" cy="470" r="0.9" fill="#FFFFFF" opacity="0.55"/>
  <circle cx="280" cy="550" r="0.8" fill="#E8EAF6" opacity="0.4"/>
</svg>
