<svg xmlns="http://www.w3.org/2000/svg" viewBox="0 0 80 80">
  <defs>
    <linearGradient id="bsb" x1="0" y1="0" x2="0" y2="1">
      <stop offset="0%" stop-color="#CC2222"/>
      <stop offset="100%" stop-color="#661111"/>
    </linearGradient>
    <linearGradient id="bsw" x1="0" y1="0" x2="1" y2="1">
      <stop offset="0%" stop-color="#AA2222"/>
      <stop offset="100%" stop-color="#550E0E"/>
    </linearGradient>
    <radialGradient id="bsg" cx="0.5" cy="0.5" r="0.5">
      <stop offset="0%" stop-color="#FF4444" stop-opacity="0.3"/>
      <stop offset="100%" stop-color="#FF0000" stop-opacity="0"/>
    </radialGradient>
  </defs>
  <circle cx="40" cy="40" r="38" fill="url(#bsg)"/>
  <path d="M40 6 L52 16 L62 28 L66 42 L60 56 L46 64 L34 64 L20 56 L14 42 L18 28 L28 16 Z" fill="url(#bsb)"/>
  <path d="M40 6 L52 16 L62 28 L50 28 L40 16 L30 28 L18 28 L28 16 Z" fill="#DD3333" opacity="0.4"/>
  <path d="M14 42 L4 38 L8 48 L20 56 Z" fill="url(#bsw)"/>
  <path d="M66 42 L76 38 L72 48 L60 56 Z" fill="url(#bsw)"/>
  <circle cx="40" cy="32" r="6" fill="#881111"/>
  <circle cx="40" cy="32" r="3" fill="#FF6666"/>
  <circle cx="26" cy="40" r="3" fill="#881111"/>
  <circle cx="54" cy="40" r="3" fill="#881111"/>
  <path d="M34 64 L36 72 L44 72 L46 64" fill="#551010"/>
  <line x1="20" y1="56" x2="14" y2="62" stroke="#FF4444" stroke-width="2" stroke-linecap="round"/>
  <line x1="60" y1="56" x2="66" y2="62" stroke="#FF4444" stroke-width="2" stroke-linecap="round"/>
  <path d="M40 6 L44 16 L42 28 L38 28 L36 16 Z" fill="#FF5555" opacity="0.2"/>
</svg>
