<svg xmlns="http://www.w3.org/2000/svg" viewBox="0 0 48 48">
  <defs>
    <linearGradient id="bb" x1="0" y1="0" x2="0" y2="1">
      <stop offset="0%" stop-color="#E8983A"/>
      <stop offset="100%" stop-color="#8B5A1A"/>
    </linearGradient>
    <linearGradient id="bp" x1="0" y1="0" x2="0" y2="1">
      <stop offset="0%" stop-color="#CC8833"/>
      <stop offset="100%" stop-color="#7A4A15"/>
    </linearGradient>
  </defs>
  <path d="M24 4 L36 14 L40 28 L34 40 L14 40 L8 28 L12 14 Z" fill="url(#bb)"/>
  <path d="M24 4 L30 14 L28 28 L20 28 L18 14 Z" fill="#FFAA55" opacity="0.35"/>
  <rect x="18" y="20" width="12" height="10" rx="2" fill="url(#bp)"/>
  <circle cx="24" cy="25" r="3" fill="#5A3010"/>
  <circle cx="24" cy="25" r="1.5" fill="#FFD080"/>
  <rect x="6" y="26" width="6" height="4" rx="1" fill="#7A4A15"/>
  <rect x="36" y="26" width="6" height="4" rx="1" fill="#7A4A15"/>
  <rect x="20" y="38" width="3" height="5" rx="1" fill="#5A3010"/>
  <rect x="25" y="38" width="3" height="5" rx="1" fill="#5A3010"/>
</svg>
