<svg xmlns="http://www.w3.org/2000/svg" viewBox="0 0 64 64">
  <defs>
    <linearGradient id="body" x1="0" y1="0" x2="0" y2="1">
      <stop offset="0%" stop-color="#5B9BFF"/>
      <stop offset="100%" stop-color="#1A4DB5"/>
    </linearGradient>
    <linearGradient id="wing" x1="0" y1="0" x2="1" y2="1">
      <stop offset="0%" stop-color="#2A6DCE"/>
      <stop offset="100%" stop-color="#163D88"/>
    </linearGradient>
    <radialGradient id="cockpit" cx="0.5" cy="0.3" r="0.5">
      <stop offset="0%" stop-color="#B0E8FF"/>
      <stop offset="100%" stop-color="#40A0E0"/>
    </radialGradient>
  </defs>
  <path d="M32 20 L6 50 L12 54 L27 42 Z" fill="url(#wing)"/>
  <path d="M32 20 L58 50 L52 54 L37 42 Z" fill="url(#wing)"/>
  <path d="M32 4 L42 30 L39 52 L25 52 L22 30 Z" fill="url(#body)"/>
  <path d="M32 4 L36 30 L34 52 L30 52 L28 30 Z" fill="#4A8BEF" opacity="0.5"/>
  <ellipse cx="32" cy="22" rx="4" ry="7" fill="url(#cockpit)"/>
  <line x1="16" y1="40" x2="8" y2="50" stroke="#FF4444" stroke-width="2" stroke-linecap="round"/>
  <line x1="48" y1="40" x2="56" y2="50" stroke="#FF4444" stroke-width="2" stroke-linecap="round"/>
  <rect x="27" y="50" width="4" height="5" rx="1" fill="#2A3A5A"/>
  <rect x="33" y="50" width="4" height="5" rx="1" fill="#2A3A5A"/>
</svg>
