<svg xmlns="http://www.w3.org/2000/svg" viewBox="0 0 24 24">
  <defs>
    <radialGradient id="laser_core" cx="0.5" cy="0.4" r="0.5">
      <stop offset="0%" stop-color="#D7BDE2"/>
      <stop offset="40%" stop-color="#9b59b6"/>
      <stop offset="100%" stop-color="#4A235A"/>
    </radialGradient>
    <linearGradient id="laser_shaft" x1="0.5" y1="0" x2="0.5" y2="1">
      <stop offset="0%" stop-color="#BB8FCE"/>
      <stop offset="50%" stop-color="#8E44AD"/>
      <stop offset="100%" stop-color="#4A235A"/>
    </linearGradient>
    <radialGradient id="laser_glow" cx="0.5" cy="0.35" r="0.5">
      <stop offset="0%" stop-color="#D7BDE2" stop-opacity="0.5"/>
      <stop offset="100%" stop-color="#9b59b6" stop-opacity="0"/>
    </radialGradient>
    <linearGradient id="laser_tip" x1="0.5" y1="0" x2="0.5" y2="1">
      <stop offset="0%" stop-color="#E8DAEF"/>
      <stop offset="100%" stop-color="#8E44AD"/>
    </linearGradient>
  </defs>
  <!-- Ambient glow -->
  <circle cx="12" cy="11" r="10" fill="url(#laser_glow)"/>
  <!-- Energy arcs (alien lightning) -->
  <polyline points="5,7 7,9 5.5,11 7.5,13" stroke="#BB8FCE" stroke-width="0.6" stroke-opacity="0.6" fill="none" stroke-linecap="round" stroke-linejoin="round"/>
  <polyline points="19,7 17,9 18.5,11 16.5,13" stroke="#BB8FCE" stroke-width="0.6" stroke-opacity="0.6" fill="none" stroke-linecap="round" stroke-linejoin="round"/>
  <polyline points="6,16 8,14.5 6.5,13" stroke="#D7BDE2" stroke-width="0.5" stroke-opacity="0.4" fill="none" stroke-linecap="round"/>
  <polyline points="18,16 16,14.5 17.5,13" stroke="#D7BDE2" stroke-width="0.5" stroke-opacity="0.4" fill="none" stroke-linecap="round"/>
  <!-- Staff body - vertical crystalline shaft -->
  <polygon points="10.5,8 13.5,8 13,20 11,20" fill="url(#laser_shaft)" stroke="#BB8FCE" stroke-width="0.4"/>
  <!-- Staff weapon tip - pointed angular top -->
  <polygon points="12,1 16,8 13.5,8 12,5 10.5,8 8,8" fill="url(#laser_tip)" stroke="#D7BDE2" stroke-width="0.5"/>
  <!-- Crystal facets on tip -->
  <polygon points="12,1 12,5 10.5,8 8,8" fill="#9b59b6" opacity="0.4"/>
  <polygon points="12,1 12,5 13.5,8 16,8" fill="#6C3483" opacity="0.3"/>
  <!-- Central energy core -->
  <ellipse cx="12" cy="8" rx="2" ry="1.2" fill="#D7BDE2" opacity="0.6"/>
  <!-- Alien rune markings on shaft -->
  <line x1="11.5" y1="11" x2="12.5" y2="11" stroke="#D7BDE2" stroke-width="0.5" stroke-opacity="0.5"/>
  <line x1="11.5" y1="13" x2="12.5" y2="13" stroke="#D7BDE2" stroke-width="0.5" stroke-opacity="0.4"/>
  <line x1="11.5" y1="15" x2="12.5" y2="15" stroke="#D7BDE2" stroke-width="0.5" stroke-opacity="0.3"/>
  <circle cx="12" cy="17" r="0.6" fill="#BB8FCE" opacity="0.4"/>
  <!-- Base flare -->
  <polygon points="10,20 14,20 15,22 9,22" fill="#6C3483" stroke="#BB8FCE" stroke-width="0.3" opacity="0.7"/>
</svg>
