<svg xmlns="http://www.w3.org/2000/svg" viewBox="0 0 24 24">
  <defs>
    <linearGradient id="missile_body" x1="0" y1="0" x2="1" y2="0">
      <stop offset="0%" stop-color="#2C3E50"/>
      <stop offset="40%" stop-color="#4A6178"/>
      <stop offset="60%" stop-color="#4A6178"/>
      <stop offset="100%" stop-color="#1C2833"/>
    </linearGradient>
    <linearGradient id="missile_tip" x1="0.5" y1="0" x2="0.5" y2="1">
      <stop offset="0%" stop-color="#F5B041"/>
      <stop offset="100%" stop-color="#E67E22"/>
    </linearGradient>
    <radialGradient id="missile_glow" cx="0.5" cy="0.5" r="0.5">
      <stop offset="0%" stop-color="#F5B041" stop-opacity="0.5"/>
      <stop offset="100%" stop-color="#E67E22" stop-opacity="0"/>
    </radialGradient>
    <linearGradient id="missile_exhaust" x1="0.5" y1="0" x2="0.5" y2="1">
      <stop offset="0%" stop-color="#E67E22"/>
      <stop offset="50%" stop-color="#D35400"/>
      <stop offset="100%" stop-color="#E74C3C" stop-opacity="0.3"/>
    </linearGradient>
    <linearGradient id="missile_fin" x1="0" y1="0" x2="1" y2="1">
      <stop offset="0%" stop-color="#34495E"/>
      <stop offset="100%" stop-color="#1C2833"/>
    </linearGradient>
  </defs>
  <!-- Ambient energy glow -->
  <circle cx="12" cy="12" r="11" fill="url(#missile_glow)"/>
  <!-- Exhaust plume -->
  <polygon points="10,20 12,22 14,20" fill="url(#missile_exhaust)" opacity="0.8"/>
  <polygon points="10.5,21 12,23.5 13.5,21" fill="#E67E22" opacity="0.4"/>
  <!-- Warhead body - main fuselage -->
  <polygon points="10,7 14,7 14.5,18 9.5,18" fill="url(#missile_body)" stroke="#566573" stroke-width="0.4"/>
  <!-- Nose cone -->
  <polygon points="12,1.5 14,7 10,7" fill="url(#missile_tip)" stroke="#F5B041" stroke-width="0.4"/>
  <!-- Bright tip point -->
  <circle cx="12" cy="2.5" r="0.8" fill="#FDEBD0" opacity="0.9"/>
  <!-- Stabilizer fins - left -->
  <polygon points="9.5,15 5.5,19 6.5,19 9.5,17" fill="url(#missile_fin)" stroke="#566573" stroke-width="0.3"/>
  <!-- Stabilizer fins - right -->
  <polygon points="14.5,15 18.5,19 17.5,19 14.5,17" fill="url(#missile_fin)" stroke="#566573" stroke-width="0.3"/>
  <!-- Naquadah energy veins -->
  <line x1="11" y1="8" x2="11" y2="11" stroke="#F5B041" stroke-width="0.6" stroke-opacity="0.7" stroke-linecap="round"/>
  <line x1="13" y1="8" x2="13" y2="11" stroke="#F5B041" stroke-width="0.6" stroke-opacity="0.7" stroke-linecap="round"/>
  <line x1="11" y1="12.5" x2="11" y2="15.5" stroke="#E67E22" stroke-width="0.5" stroke-opacity="0.6" stroke-linecap="round"/>
  <line x1="13" y1="12.5" x2="13" y2="15.5" stroke="#E67E22" stroke-width="0.5" stroke-opacity="0.6" stroke-linecap="round"/>
  <!-- Alien tech markings - horizontal bands -->
  <line x1="10.2" y1="10" x2="13.8" y2="10" stroke="#F39C12" stroke-width="0.4" stroke-opacity="0.6"/>
  <line x1="10.2" y1="12" x2="13.8" y2="12" stroke="#F39C12" stroke-width="0.4" stroke-opacity="0.5"/>
  <line x1="10.2" y1="14" x2="13.8" y2="14" stroke="#F39C12" stroke-width="0.4" stroke-opacity="0.4"/>
  <!-- Central Naquadah energy core -->
  <ellipse cx="12" cy="11" rx="1.2" ry="1.5" fill="#F5B041" opacity="0.6"/>
  <ellipse cx="12" cy="11" rx="0.6" ry="0.8" fill="#FDEBD0" opacity="0.7"/>
  <!-- Body highlight reflection -->
  <rect x="10.5" y="7.5" width="1" height="8" rx="0.5" ry="0.5" fill="#FFFFFF" opacity="0.12"/>
  <!-- Warhead section ring -->
  <line x1="9.5" y1="18" x2="14.5" y2="18" stroke="#E67E22" stroke-width="0.8" stroke-opacity="0.7"/>
</svg>
