<svg xmlns="http://www.w3.org/2000/svg" viewBox="0 0 24 24">
  <defs>
    <radialGradient id="spread_core" cx="0.5" cy="0.5" r="0.5">
      <stop offset="0%" stop-color="#AED6F1"/>
      <stop offset="40%" stop-color="#5DADE2"/>
      <stop offset="100%" stop-color="#1A5276"/>
    </radialGradient>
    <linearGradient id="spread_face_top" x1="0" y1="0" x2="0" y2="1">
      <stop offset="0%" stop-color="#85C1E9"/>
      <stop offset="100%" stop-color="#3498db"/>
    </linearGradient>
    <linearGradient id="spread_face_left" x1="0" y1="0" x2="1" y2="1">
      <stop offset="0%" stop-color="#2E86C1"/>
      <stop offset="100%" stop-color="#1A5276"/>
    </linearGradient>
    <linearGradient id="spread_face_right" x1="1" y1="0" x2="0" y2="1">
      <stop offset="0%" stop-color="#3498db"/>
      <stop offset="100%" stop-color="#1B4F72"/>
    </linearGradient>
    <radialGradient id="spread_glow" cx="0.5" cy="0.5" r="0.5">
      <stop offset="0%" stop-color="#AED6F1" stop-opacity="0.6"/>
      <stop offset="100%" stop-color="#3498db" stop-opacity="0"/>
    </radialGradient>
  </defs>
  <!-- Outer energy glow -->
  <circle cx="12" cy="12" r="11" fill="url(#spread_glow)"/>
  <!-- Energy beams radiating outward (spread shot visual) -->
  <line x1="12" y1="12" x2="2" y2="3" stroke="#5DADE2" stroke-width="0.8" stroke-opacity="0.7" stroke-linecap="round"/>
  <line x1="12" y1="12" x2="22" y2="3" stroke="#5DADE2" stroke-width="0.8" stroke-opacity="0.7" stroke-linecap="round"/>
  <line x1="12" y1="12" x2="2" y2="21" stroke="#5DADE2" stroke-width="0.8" stroke-opacity="0.7" stroke-linecap="round"/>
  <line x1="12" y1="12" x2="22" y2="21" stroke="#5DADE2" stroke-width="0.8" stroke-opacity="0.7" stroke-linecap="round"/>
  <line x1="12" y1="12" x2="12" y2="1" stroke="#85C1E9" stroke-width="0.6" stroke-opacity="0.5" stroke-linecap="round"/>
  <line x1="12" y1="12" x2="12" y2="23" stroke="#85C1E9" stroke-width="0.6" stroke-opacity="0.5" stroke-linecap="round"/>
  <!-- Holocron cube - top face -->
  <polygon points="12,5 18,8 12,11 6,8" fill="url(#spread_face_top)" stroke="#AED6F1" stroke-width="0.5"/>
  <!-- Holocron cube - left face -->
  <polygon points="6,8 12,11 12,18 6,15" fill="url(#spread_face_left)" stroke="#85C1E9" stroke-width="0.4"/>
  <!-- Holocron cube - right face -->
  <polygon points="18,8 12,11 12,18 18,15" fill="url(#spread_face_right)" stroke="#85C1E9" stroke-width="0.4"/>
  <!-- Ancient markings on faces -->
  <line x1="9" y1="9.5" x2="9" y2="13" stroke="#AED6F1" stroke-width="0.4" stroke-opacity="0.6"/>
  <line x1="7.5" y1="11" x2="10.5" y2="11" stroke="#AED6F1" stroke-width="0.4" stroke-opacity="0.6"/>
  <line x1="15" y1="9.5" x2="15" y2="13" stroke="#AED6F1" stroke-width="0.4" stroke-opacity="0.5"/>
  <line x1="13.5" y1="11" x2="16.5" y2="11" stroke="#AED6F1" stroke-width="0.4" stroke-opacity="0.5"/>
  <!-- Central bright core -->
  <circle cx="12" cy="11" r="1.5" fill="url(#spread_core)" opacity="0.8"/>
</svg>
