<svg xmlns="http://www.w3.org/2000/svg" viewBox="0 0 24 24">
  <defs>
    <radialGradient id="rapid_core" cx="0.5" cy="0.45" r="0.5">
      <stop offset="0%" stop-color="#FDEBD0"/>
      <stop offset="30%" stop-color="#F5B041"/>
      <stop offset="100%" stop-color="#B7950B"/>
    </radialGradient>
    <linearGradient id="rapid_facet_l" x1="0" y1="0" x2="1" y2="1">
      <stop offset="0%" stop-color="#F9E79F"/>
      <stop offset="100%" stop-color="#D4AC0D"/>
    </linearGradient>
    <linearGradient id="rapid_facet_r" x1="1" y1="0" x2="0" y2="1">
      <stop offset="0%" stop-color="#F39c12"/>
      <stop offset="100%" stop-color="#7D6608"/>
    </linearGradient>
    <radialGradient id="rapid_glow" cx="0.5" cy="0.45" r="0.45">
      <stop offset="0%" stop-color="#F9E79F" stop-opacity="0.5"/>
      <stop offset="100%" stop-color="#F39c12" stop-opacity="0"/>
    </radialGradient>
  </defs>
  <!-- Ambient glow -->
  <circle cx="12" cy="11" r="10" fill="url(#rapid_glow)"/>
  <!-- Speed lines (rapid-fire visual cue) -->
  <line x1="1" y1="8" x2="5" y2="8" stroke="#F5B041" stroke-width="0.7" stroke-opacity="0.5" stroke-linecap="round"/>
  <line x1="2" y1="11" x2="5.5" y2="11" stroke="#F9E79F" stroke-width="0.8" stroke-opacity="0.6" stroke-linecap="round"/>
  <line x1="1" y1="14" x2="5" y2="14" stroke="#F5B041" stroke-width="0.7" stroke-opacity="0.5" stroke-linecap="round"/>
  <line x1="19" y1="8" x2="23" y2="8" stroke="#F5B041" stroke-width="0.7" stroke-opacity="0.5" stroke-linecap="round"/>
  <line x1="18.5" y1="11" x2="22" y2="11" stroke="#F9E79F" stroke-width="0.8" stroke-opacity="0.6" stroke-linecap="round"/>
  <line x1="19" y1="14" x2="23" y2="14" stroke="#F5B041" stroke-width="0.7" stroke-opacity="0.5" stroke-linecap="round"/>
  <!-- Crystal body - main shard (asymmetric faceted shape) -->
  <polygon points="12,2 16,7 15,18 12,22 9,18 8,7" fill="url(#rapid_core)" stroke="#D4AC0D" stroke-width="0.6"/>
  <!-- Left facet -->
  <polygon points="8,7 12,2 12,12 9,18" fill="url(#rapid_facet_l)" opacity="0.6"/>
  <!-- Right facet -->
  <polygon points="16,7 12,2 12,12 15,18" fill="url(#rapid_facet_r)" opacity="0.5"/>
  <!-- Internal refraction lines -->
  <line x1="12" y1="4" x2="10" y2="14" stroke="#FDEBD0" stroke-width="0.5" stroke-opacity="0.7"/>
  <line x1="12" y1="4" x2="14" y2="12" stroke="#FDEBD0" stroke-width="0.4" stroke-opacity="0.5"/>
  <!-- Bright center highlight -->
  <ellipse cx="11.5" cy="9" rx="1.5" ry="2.5" fill="#FDEBD0" opacity="0.5"/>
  <!-- Small facet sparkles -->
  <circle cx="10" cy="6" r="0.6" fill="#FFF" opacity="0.7"/>
  <circle cx="13.5" cy="10" r="0.4" fill="#FFF" opacity="0.5"/>
</svg>
