<svg xmlns="http://www.w3.org/2000/svg" viewBox="0 0 128 128">
  <defs>
    <linearGradient id="gr-base" x1="0" y1="0" x2="1" y2="1">
      <stop offset="0%" stop-color="#6b3a1a"/>
      <stop offset="50%" stop-color="#7a4a28"/>
      <stop offset="100%" stop-color="#8b5e3c"/>
    </linearGradient>
    <linearGradient id="gr-oxide" x1="0" y1="0" x2="0" y2="1">
      <stop offset="0%" stop-color="#8b5e3c"/>
      <stop offset="100%" stop-color="#6b3a1a"/>
    </linearGradient>
  </defs>

  <!-- Base rust plating -->
  <rect width="128" height="128" fill="url(#gr-base)"/>

  <!-- Panel lines (32px grid for seamless tiling) -->
  <line x1="0" y1="0" x2="128" y2="0" stroke="#5a3520" stroke-width="1"/>
  <line x1="0" y1="32" x2="128" y2="32" stroke="#5a3520" stroke-width="0.8"/>
  <line x1="0" y1="64" x2="128" y2="64" stroke="#6b3a1a" stroke-width="1"/>
  <line x1="0" y1="96" x2="128" y2="96" stroke="#5a3520" stroke-width="0.8"/>
  <line x1="0" y1="0" x2="0" y2="128" stroke="#5a3520" stroke-width="1"/>
  <line x1="32" y1="0" x2="32" y2="128" stroke="#5a3520" stroke-width="0.8"/>
  <line x1="64" y1="0" x2="64" y2="128" stroke="#6b3a1a" stroke-width="1"/>
  <line x1="96" y1="0" x2="96" y2="128" stroke="#5a3520" stroke-width="0.8"/>

  <!-- Rivet lines along panel edges -->
  <circle cx="0" cy="0" r="2" fill="#5a3520"/>
  <circle cx="32" cy="0" r="2" fill="#5a3520"/>
  <circle cx="64" cy="0" r="2" fill="#5a3520"/>
  <circle cx="96" cy="0" r="2" fill="#5a3520"/>
  <circle cx="0" cy="32" r="2" fill="#5a3520"/>
  <circle cx="32" cy="32" r="2" fill="#5a3520"/>
  <circle cx="64" cy="32" r="2" fill="#5a3520"/>
  <circle cx="96" cy="32" r="2" fill="#5a3520"/>
  <circle cx="0" cy="64" r="2.2" fill="#6b3a1a"/>
  <circle cx="32" cy="64" r="2.2" fill="#6b3a1a"/>
  <circle cx="64" cy="64" r="2.2" fill="#6b3a1a"/>
  <circle cx="96" cy="64" r="2.2" fill="#6b3a1a"/>
  <circle cx="0" cy="96" r="2" fill="#5a3520"/>
  <circle cx="32" cy="96" r="2" fill="#5a3520"/>
  <circle cx="64" cy="96" r="2" fill="#5a3520"/>
  <circle cx="96" cy="96" r="2" fill="#5a3520"/>

  <!-- Oxide patches (positioned for tiling) -->
  <ellipse cx="16" cy="16" rx="8" ry="5" fill="url(#gr-oxide)" opacity="0.6"/>
  <ellipse cx="48" cy="48" rx="10" ry="6" fill="url(#gr-oxide)" opacity="0.5"/>
  <ellipse cx="80" cy="16" rx="7" ry="4" fill="url(#gr-oxide)" opacity="0.55"/>
  <ellipse cx="16" cy="80" rx="9" ry="5" fill="url(#gr-oxide)" opacity="0.5"/>
  <ellipse cx="112" cy="48" rx="6" ry="4" fill="url(#gr-oxide)" opacity="0.45"/>
  <ellipse cx="80" cy="112" rx="8" ry="5" fill="url(#gr-oxide)" opacity="0.55"/>
  <ellipse cx="48" cy="80" rx="7" ry="4" fill="url(#gr-oxide)" opacity="0.5"/>

  <!-- Corrosion spots -->
  <circle cx="24" cy="40" r="3" fill="#5a3520"/>
  <circle cx="72" cy="88" r="2.5" fill="#5a3520"/>
  <circle cx="104" cy="24" r="2" fill="#6b3a1a"/>
  <circle cx="40" cy="104" r="2.5" fill="#5a3520"/>
  <circle cx="88" cy="56" r="2" fill="#6b3a1a"/>
  <circle cx="56" cy="72" r="3" fill="#5a3520"/>

  <!-- Sub-panel rivets -->
  <circle cx="16" cy="16" r="1.2" fill="#4a2a14"/>
  <circle cx="48" cy="16" r="1.2" fill="#4a2a14"/>
  <circle cx="80" cy="16" r="1.2" fill="#4a2a14"/>
  <circle cx="16" cy="48" r="1.2" fill="#4a2a14"/>
  <circle cx="48" cy="48" r="1.2" fill="#4a2a14"/>
  <circle cx="80" cy="48" r="1.2" fill="#4a2a14"/>
  <circle cx="16" cy="80" r="1.2" fill="#4a2a14"/>
  <circle cx="48" cy="80" r="1.2" fill="#4a2a14"/>
  <circle cx="80" cy="80" r="1.2" fill="#4a2a14"/>
</svg>
