<svg xmlns="http://www.w3.org/2000/svg" viewBox="0 0 128 128">
  <defs>
    <linearGradient id="gm-base" x1="0" y1="0" x2="1" y2="1">
      <stop offset="0%" stop-color="#2a2a2a"/>
      <stop offset="50%" stop-color="#3a3a3a"/>
      <stop offset="100%" stop-color="#4a4a4a"/>
    </linearGradient>
    <linearGradient id="gm-diamond" x1="0" y1="0" x2="1" y2="1">
      <stop offset="0%" stop-color="#4a4a4a"/>
      <stop offset="50%" stop-color="#3a3a3a"/>
      <stop offset="100%" stop-color="#2a2a2a"/>
    </linearGradient>
  </defs>

  <!-- Base metal -->
  <rect width="128" height="128" fill="url(#gm-base)"/>

  <!-- Diamond plate (32px repeat) -->
  <path d="M 0 16 L 16 0 L 32 16 L 16 32 Z" fill="url(#gm-diamond)" stroke="#2a2a2a" stroke-width="0.5"/>
  <path d="M 32 16 L 48 0 L 64 16 L 48 32 Z" fill="url(#gm-diamond)" stroke="#2a2a2a" stroke-width="0.5"/>
  <path d="M 64 16 L 80 0 L 96 16 L 80 32 Z" fill="url(#gm-diamond)" stroke="#2a2a2a" stroke-width="0.5"/>
  <path d="M 96 16 L 112 0 L 128 16 L 112 32 Z" fill="url(#gm-diamond)" stroke="#2a2a2a" stroke-width="0.5"/>
  <path d="M 0 48 L 16 32 L 32 48 L 16 64 Z" fill="url(#gm-diamond)" stroke="#2a2a2a" stroke-width="0.5"/>
  <path d="M 32 48 L 48 32 L 64 48 L 48 64 Z" fill="url(#gm-diamond)" stroke="#2a2a2a" stroke-width="0.5"/>
  <path d="M 64 48 L 80 32 L 96 48 L 80 64 Z" fill="url(#gm-diamond)" stroke="#2a2a2a" stroke-width="0.5"/>
  <path d="M 96 48 L 112 32 L 128 48 L 112 64 Z" fill="url(#gm-diamond)" stroke="#2a2a2a" stroke-width="0.5"/>
  <path d="M 0 80 L 16 64 L 32 80 L 16 96 Z" fill="url(#gm-diamond)" stroke="#2a2a2a" stroke-width="0.5"/>
  <path d="M 32 80 L 48 64 L 64 80 L 48 96 Z" fill="url(#gm-diamond)" stroke="#2a2a2a" stroke-width="0.5"/>
  <path d="M 64 80 L 80 64 L 96 80 L 80 96 Z" fill="url(#gm-diamond)" stroke="#2a2a2a" stroke-width="0.5"/>
  <path d="M 96 80 L 112 64 L 128 80 L 112 96 Z" fill="url(#gm-diamond)" stroke="#2a2a2a" stroke-width="0.5"/>
  <path d="M 0 112 L 16 96 L 32 112 L 16 128 Z" fill="url(#gm-diamond)" stroke="#2a2a2a" stroke-width="0.5"/>
  <path d="M 32 112 L 48 96 L 64 112 L 48 128 Z" fill="url(#gm-diamond)" stroke="#2a2a2a" stroke-width="0.5"/>
  <path d="M 64 112 L 80 96 L 96 112 L 80 128 Z" fill="url(#gm-diamond)" stroke="#2a2a2a" stroke-width="0.5"/>
  <path d="M 96 112 L 112 96 L 128 112 L 112 128 Z" fill="url(#gm-diamond)" stroke="#2a2a2a" stroke-width="0.5"/>

  <!-- Panel grid -->
  <line x1="0" y1="0" x2="128" y2="0" stroke="#2a2a2a" stroke-width="0.5"/>
  <line x1="0" y1="32" x2="128" y2="32" stroke="#2a2a2a" stroke-width="0.5"/>
  <line x1="0" y1="64" x2="128" y2="64" stroke="#2a2a2a" stroke-width="0.5"/>
  <line x1="0" y1="96" x2="128" y2="96" stroke="#2a2a2a" stroke-width="0.5"/>
  <line x1="0" y1="0" x2="0" y2="128" stroke="#2a2a2a" stroke-width="0.5"/>
  <line x1="32" y1="0" x2="32" y2="128" stroke="#2a2a2a" stroke-width="0.5"/>
  <line x1="64" y1="0" x2="64" y2="128" stroke="#2a2a2a" stroke-width="0.5"/>
  <line x1="96" y1="0" x2="96" y2="128" stroke="#2a2a2a" stroke-width="0.5"/>
</svg>
