<svg xmlns="http://www.w3.org/2000/svg" viewBox="0 0 128 128">
  <defs>
    <linearGradient id="gd-base" x1="0" y1="0" x2="1" y2="1">
      <stop offset="0%" stop-color="#1a1a1a"/>
      <stop offset="50%" stop-color="#222222"/>
      <stop offset="100%" stop-color="#2a2a2a"/>
    </linearGradient>
    <linearGradient id="gd-highlight" x1="0" y1="0" x2="0" y2="1">
      <stop offset="0%" stop-color="#2a2a2a"/>
      <stop offset="100%" stop-color="#1a1a1a"/>
    </linearGradient>
  </defs>

  <!-- Dark steel base -->
  <rect width="128" height="128" fill="url(#gd-base)"/>

  <!-- Fine grid (16px) -->
  <line x1="0" y1="0" x2="128" y2="0" stroke="#1a1a1a" stroke-width="0.5"/>
  <line x1="0" y1="16" x2="128" y2="16" stroke="#222222" stroke-width="0.4"/>
  <line x1="0" y1="32" x2="128" y2="32" stroke="#1a1a1a" stroke-width="0.5"/>
  <line x1="0" y1="48" x2="128" y2="48" stroke="#222222" stroke-width="0.4"/>
  <line x1="0" y1="64" x2="128" y2="64" stroke="#1a1a1a" stroke-width="0.5"/>
  <line x1="0" y1="80" x2="128" y2="80" stroke="#222222" stroke-width="0.4"/>
  <line x1="0" y1="96" x2="128" y2="96" stroke="#1a1a1a" stroke-width="0.5"/>
  <line x1="0" y1="112" x2="128" y2="112" stroke="#222222" stroke-width="0.4"/>
  <line x1="0" y1="0" x2="0" y2="128" stroke="#1a1a1a" stroke-width="0.5"/>
  <line x1="16" y1="0" x2="16" y2="128" stroke="#222222" stroke-width="0.4"/>
  <line x1="32" y1="0" x2="32" y2="128" stroke="#1a1a1a" stroke-width="0.5"/>
  <line x1="48" y1="0" x2="48" y2="128" stroke="#222222" stroke-width="0.4"/>
  <line x1="64" y1="0" x2="64" y2="128" stroke="#1a1a1a" stroke-width="0.5"/>
  <line x1="80" y1="0" x2="80" y2="128" stroke="#222222" stroke-width="0.4"/>
  <line x1="96" y1="0" x2="96" y2="128" stroke="#1a1a1a" stroke-width="0.5"/>
  <line x1="112" y1="0" x2="112" y2="128" stroke="#222222" stroke-width="0.4"/>

  <!-- Red accent lines (32px spacing) -->
  <line x1="0" y1="32" x2="128" y2="32" stroke="#8a0000" stroke-width="0.6"/>
  <line x1="0" y1="96" x2="128" y2="96" stroke="#8a0000" stroke-width="0.6"/>
  <line x1="32" y1="0" x2="32" y2="128" stroke="#8a0000" stroke-width="0.6"/>
  <line x1="96" y1="0" x2="96" y2="128" stroke="#8a0000" stroke-width="0.6"/>

  <!-- Subtle reflection panels -->
  <rect x="8" y="8" width="12" height="12" fill="url(#gd-highlight)" opacity="0.15"/>
  <rect x="56" y="40" width="10" height="10" fill="url(#gd-highlight)" opacity="0.12"/>
  <rect x="104" y="72" width="12" height="12" fill="url(#gd-highlight)" opacity="0.15"/>
  <rect x="24" y="104" width="10" height="10" fill="url(#gd-highlight)" opacity="0.12"/>
  <rect x="72" y="8" width="8" height="8" fill="url(#gd-highlight)" opacity="0.1"/>
  <rect x="8" y="88" width="10" height="10" fill="url(#gd-highlight)" opacity="0.12"/>

  <!-- Red accent corners at major grid -->
  <rect x="0" y="0" width="2" height="2" fill="#8a0000"/>
  <rect x="30" y="0" width="2" height="2" fill="#8a0000"/>
  <rect x="94" y="0" width="2" height="2" fill="#8a0000"/>
  <rect x="126" y="0" width="2" height="2" fill="#8a0000"/>
  <rect x="0" y="30" width="2" height="2" fill="#8a0000"/>
  <rect x="126" y="30" width="2" height="2" fill="#8a0000"/>
  <rect x="0" y="94" width="2" height="2" fill="#8a0000"/>
  <rect x="126" y="94" width="2" height="2" fill="#8a0000"/>
  <rect x="0" y="126" width="2" height="2" fill="#8a0000"/>
  <rect x="30" y="126" width="2" height="2" fill="#8a0000"/>
  <rect x="94" y="126" width="2" height="2" fill="#8a0000"/>
  <rect x="126" y="126" width="2" height="2" fill="#8a0000"/>

  <!-- Fine detail dots at 64px intersections -->
  <circle cx="64" cy="64" r="0.8" fill="#2a2a2a"/>
  <circle cx="0" cy="64" r="0.8" fill="#2a2a2a"/>
  <circle cx="64" cy="0" r="0.8" fill="#2a2a2a"/>
  <circle cx="127" cy="64" r="0.8" fill="#2a2a2a"/>
  <circle cx="64" cy="128" r="0.8" fill="#2a2a2a"/>
</svg>
