<svg xmlns="http://www.w3.org/2000/svg" viewBox="0 0 128 128">
  <defs>
    <linearGradient id="ga-base" x1="0" y1="0" x2="1" y2="1">
      <stop offset="0%" stop-color="#2e2a1e"/>
      <stop offset="50%" stop-color="#3a3528"/>
      <stop offset="100%" stop-color="#4a4a40"/>
    </linearGradient>
    <linearGradient id="ga-crack" x1="0" y1="0" x2="0" y2="1">
      <stop offset="0%" stop-color="#1e1a14"/>
      <stop offset="100%" stop-color="#2e2a1e"/>
    </linearGradient>
  </defs>

  <!-- Scorched base -->
  <rect width="128" height="128" fill="url(#ga-base)"/>

  <!-- Crack pattern (seamless - cracks use 32/64 boundaries) -->
  <path d="M 0 64 Q 20 60 32 64 Q 44 68 64 64 Q 84 60 96 64 Q 108 68 128 64" stroke="#1e1a14" stroke-width="1.2" fill="none"/>
  <path d="M 64 0 Q 60 24 64 32 Q 68 44 64 64 Q 60 84 64 96 Q 68 108 64 128" stroke="#1e1a14" stroke-width="1" fill="none"/>
  <path d="M 0 32 Q 16 28 32 32 Q 48 36 64 32" stroke="#2e2a1e" stroke-width="0.8" fill="none"/>
  <path d="M 64 32 Q 80 36 96 32 Q 112 28 128 32" stroke="#2e2a1e" stroke-width="0.8" fill="none"/>
  <path d="M 0 96 Q 16 92 32 96 Q 48 100 64 96" stroke="#2e2a1e" stroke-width="0.8" fill="none"/>
  <path d="M 64 96 Q 80 100 96 96 Q 112 92 128 96" stroke="#2e2a1e" stroke-width="0.8" fill="none"/>
  <path d="M 32 0 Q 28 16 32 32 Q 36 48 32 64" stroke="#2e2a1e" stroke-width="0.7" fill="none"/>
  <path d="M 32 64 Q 36 80 32 96 Q 28 112 32 128" stroke="#2e2a1e" stroke-width="0.7" fill="none"/>
  <path d="M 96 0 Q 92 16 96 32 Q 100 48 96 64" stroke="#2e2a1e" stroke-width="0.7" fill="none"/>
  <path d="M 96 64 Q 100 80 96 96 Q 92 112 96 128" stroke="#2e2a1e" stroke-width="0.7" fill="none"/>

  <!-- Diagonal crack branches -->
  <line x1="16" y1="48" x2="32" y2="56" stroke="#1e1a14" stroke-width="0.6"/>
  <line x1="48" y1="80" x2="64" y2="72" stroke="#1e1a14" stroke-width="0.6"/>
  <line x1="80" y1="16" x2="96" y2="24" stroke="#1e1a14" stroke-width="0.6"/>
  <line x1="112" y1="80" x2="96" y2="88" stroke="#1e1a14" stroke-width="0.6"/>
  <line x1="48" y1="48" x2="56" y2="64" stroke="#2e2a1e" stroke-width="0.5"/>
  <line x1="80" y1="96" x2="72" y2="112" stroke="#2e2a1e" stroke-width="0.5"/>

  <!-- Ash texture spots -->
  <circle cx="24" cy="24" r="4" fill="#4a4a40" opacity="0.4"/>
  <circle cx="88" cy="40" r="3" fill="#3a3528" opacity="0.5"/>
  <circle cx="40" cy="88" r="5" fill="#4a4a40" opacity="0.35"/>
  <circle cx="104" cy="104" r="3.5" fill="#3a3528" opacity="0.45"/>
  <circle cx="64" cy="64" r="6" fill="#2e2a1e" opacity="0.3"/>
  <circle cx="16" cy="112" r="3" fill="#4a4a40" opacity="0.4"/>
  <circle cx="112" cy="16" r="2.5" fill="#3a3528" opacity="0.5"/>

  <!-- Fine ash particles -->
  <circle cx="8" cy="72" r="1" fill="#4a4a40"/>
  <circle cx="56" cy="24" r="1" fill="#3a3528"/>
  <circle cx="120" cy="88" r="1" fill="#4a4a40"/>
  <circle cx="72" cy="120" r="1" fill="#3a3528"/>
  <circle cx="32" cy="56" r="0.8" fill="#4a4a40"/>
  <circle cx="96" cy="72" r="0.8" fill="#3a3528"/>
</svg>
