<svg xmlns="http://www.w3.org/2000/svg" viewBox="0 0 128 128">
  <defs>
    <linearGradient id="hull-base" x1="0" y1="0" x2="1" y2="1">
      <stop offset="0%" stop-color="#434343"/>
      <stop offset="50%" stop-color="#474747"/>
      <stop offset="100%" stop-color="#414141"/>
    </linearGradient>
  </defs>

  <!-- Base metallic surface -->
  <rect width="128" height="128" fill="url(#hull-base)"/>

  <!-- Major horizontal panel lines (full width for seamless tiling) -->
  <line x1="0" y1="0" x2="128" y2="0" stroke="#383838" stroke-width="0.8"/>
  <line x1="0" y1="32" x2="128" y2="32" stroke="#383838" stroke-width="0.8"/>
  <line x1="0" y1="64" x2="128" y2="64" stroke="#3c3c3c" stroke-width="1"/>
  <line x1="0" y1="96" x2="128" y2="96" stroke="#383838" stroke-width="0.8"/>

  <!-- Major vertical panel lines (full height for seamless tiling) -->
  <line x1="0" y1="0" x2="0" y2="128" stroke="#383838" stroke-width="0.8"/>
  <line x1="48" y1="0" x2="48" y2="128" stroke="#3c3c3c" stroke-width="0.8"/>
  <line x1="80" y1="0" x2="80" y2="128" stroke="#383838" stroke-width="0.8"/>

  <!-- Sub-panel divisions (horizontal) -->
  <line x1="0" y1="16" x2="48" y2="16" stroke="#404040" stroke-width="0.5"/>
  <line x1="80" y1="48" x2="128" y2="48" stroke="#404040" stroke-width="0.5"/>
  <line x1="48" y1="80" x2="80" y2="80" stroke="#404040" stroke-width="0.5"/>
  <line x1="0" y1="112" x2="48" y2="112" stroke="#404040" stroke-width="0.5"/>

  <!-- Sub-panel divisions (vertical) -->
  <line x1="24" y1="0" x2="24" y2="32" stroke="#3e3e3e" stroke-width="0.4"/>
  <line x1="24" y1="64" x2="24" y2="96" stroke="#404040" stroke-width="0.5"/>
  <line x1="64" y1="0" x2="64" y2="32" stroke="#404040" stroke-width="0.5"/>
  <line x1="104" y1="32" x2="104" y2="64" stroke="#3e3e3e" stroke-width="0.4"/>
  <line x1="104" y1="96" x2="104" y2="128" stroke="#404040" stroke-width="0.5"/>

  <!-- Panel edge highlights (subtle bevel effect on select panels) -->
  <line x1="1" y1="33" x2="47" y2="33" stroke="#505050" stroke-width="0.3"/>
  <line x1="49" y1="1" x2="49" y2="31" stroke="#505050" stroke-width="0.3"/>
  <line x1="1" y1="65" x2="47" y2="65" stroke="#4e4e4e" stroke-width="0.3"/>
  <line x1="81" y1="33" x2="81" y2="63" stroke="#505050" stroke-width="0.3"/>
  <line x1="81" y1="65" x2="127" y2="65" stroke="#4e4e4e" stroke-width="0.3"/>
  <line x1="49" y1="65" x2="79" y2="65" stroke="#505050" stroke-width="0.3"/>
  <line x1="1" y1="97" x2="47" y2="97" stroke="#4e4e4e" stroke-width="0.3"/>
  <line x1="81" y1="97" x2="127" y2="97" stroke="#505050" stroke-width="0.3"/>

  <!-- Rivets at major grid intersections -->
  <circle cx="0" cy="0" r="1.2" fill="#505050"/>
  <circle cx="48" cy="0" r="1.2" fill="#505050"/>
  <circle cx="80" cy="0" r="1.2" fill="#505050"/>
  <circle cx="0" cy="32" r="1.2" fill="#505050"/>
  <circle cx="48" cy="32" r="1.2" fill="#505050"/>
  <circle cx="80" cy="32" r="1.2" fill="#505050"/>
  <circle cx="0" cy="64" r="1.3" fill="#525252"/>
  <circle cx="48" cy="64" r="1.3" fill="#525252"/>
  <circle cx="80" cy="64" r="1.3" fill="#525252"/>
  <circle cx="0" cy="96" r="1.2" fill="#505050"/>
  <circle cx="48" cy="96" r="1.2" fill="#505050"/>
  <circle cx="80" cy="96" r="1.2" fill="#505050"/>

  <!-- Rivets at sub-panel intersections -->
  <circle cx="24" cy="0" r="1" fill="#4e4e4e"/>
  <circle cx="24" cy="32" r="1" fill="#4e4e4e"/>
  <circle cx="24" cy="64" r="1" fill="#4e4e4e"/>
  <circle cx="24" cy="96" r="1" fill="#4e4e4e"/>
  <circle cx="64" cy="0" r="1" fill="#4e4e4e"/>
  <circle cx="64" cy="32" r="1" fill="#4e4e4e"/>
  <circle cx="104" cy="32" r="1" fill="#4e4e4e"/>
  <circle cx="104" cy="64" r="1" fill="#4e4e4e"/>
  <circle cx="104" cy="96" r="1" fill="#4e4e4e"/>

  <!-- Access hatch 1 -->
  <rect x="6" y="38" width="10" height="10" fill="#3a3a3a" stroke="#353535" stroke-width="0.5" rx="0.5"/>
  <rect x="8" y="40" width="6" height="6" fill="#363636" rx="0.3"/>
  <circle cx="11" cy="43" r="1" fill="#424242"/>

  <!-- Access hatch 2 -->
  <rect x="86" y="70" width="12" height="8" fill="#3a3a3a" stroke="#353535" stroke-width="0.5" rx="0.5"/>
  <rect x="88" y="72" width="8" height="4" fill="#363636" rx="0.3"/>

  <!-- Surface weathering / carbon scoring (very subtle) -->
  <rect x="52" y="10" width="8" height="6" fill="#3a3a3a" opacity="0.15" rx="1"/>
  <rect x="14" y="74" width="6" height="10" fill="#383838" opacity="0.12" rx="1"/>
  <rect x="90" y="100" width="10" height="8" fill="#3a3a3a" opacity="0.1" rx="1"/>
  <rect x="56" y="70" width="5" height="5" fill="#383838" opacity="0.15" rx="1"/>
  <rect x="30" y="100" width="8" height="6" fill="#3a3a3a" opacity="0.12" rx="1"/>
  <rect x="110" y="40" width="6" height="8" fill="#383838" opacity="0.1" rx="1"/>
</svg>
