<svg xmlns="http://www.w3.org/2000/svg" viewBox="0 0 128 128">
  <rect width="128" height="128" fill="#444444"/>
  <path d="M24 0 L28 64 L32 128" stroke="#3a3a3a" stroke-width="0.5" fill="none"/>
  <path d="M64 0 L68 48 L72 96 L76 128" stroke="#555555" stroke-width="0.5" fill="none"/>
  <path d="M96 0 L100 72 L104 128" stroke="#3a3a3a" stroke-width="0.5" fill="none"/>
  <path d="M0 32 L48 36 L96 40 L128 44" stroke="#4a4a4a" stroke-width="0.5" fill="none"/>
  <path d="M0 80 L64 84 L128 88" stroke="#555555" stroke-width="0.5" fill="none"/>
  <path d="M40 0 L42 40 L44 80 L46 128" stroke="#3a3a3a" stroke-width="0.3" fill="none"/>
  <path d="M88 0 L90 56 L92 128" stroke="#4a4a4a" stroke-width="0.3" fill="none"/>
  <rect x="8" y="8" width="12" height="12" fill="#3a3a3a" opacity="0.6"/>
  <rect x="72" y="56" width="16" height="16" fill="#555555" opacity="0.5"/>
  <rect x="40" y="96" width="10" height="10" fill="#4a4a4a" opacity="0.6"/>
</svg>
