<svg xmlns="http://www.w3.org/2000/svg" viewBox="0 0 128 128">
  <rect width="128" height="128" fill="#c8a060"/>
  <path d="M0 24 Q32 20 64 24 Q96 28 128 24" stroke="#b8884f" stroke-width="1" fill="none"/>
  <path d="M0 48 Q32 44 64 48 Q96 52 128 48" stroke="#c2956a" stroke-width="1" fill="none"/>
  <path d="M0 72 Q32 68 64 72 Q96 76 128 72" stroke="#d4a76a" stroke-width="1" fill="none"/>
  <path d="M0 96 Q32 92 64 96 Q96 100 128 96" stroke="#b8884f" stroke-width="1" fill="none"/>
  <path d="M0 12 Q64 8 128 12" stroke="#c2956a" stroke-width="0.5" fill="none"/>
  <path d="M0 36 Q64 32 128 36" stroke="#d4a76a" stroke-width="0.5" fill="none"/>
  <path d="M0 60 Q64 56 128 60" stroke="#b8884f" stroke-width="0.5" fill="none"/>
  <path d="M0 84 Q64 80 128 84" stroke="#c2956a" stroke-width="0.5" fill="none"/>
  <circle cx="20" cy="16" r="1" fill="#d4a76a"/>
  <circle cx="56" cy="40" r="1" fill="#c2956a"/>
  <circle cx="92" cy="64" r="1" fill="#b8884f"/>
  <circle cx="36" cy="88" r="1" fill="#d4a76a"/>
  <circle cx="108" cy="112" r="1" fill="#c2956a"/>
</svg>
