<svg xmlns="http://www.w3.org/2000/svg" viewBox="0 0 128 128">
  <!-- Naboo Meadowlands ground texture -->
  <rect width="128" height="128" fill="#4a8c3a" opacity="0.45"/>

  <!-- Sunlit meadow patches -->
  <ellipse cx="30" cy="34" rx="22" ry="16" fill="#68aa52" opacity="0.35"/>
  <ellipse cx="96" cy="82" rx="20" ry="14" fill="#68aa52" opacity="0.3"/>
  <ellipse cx="70" cy="14" rx="16" ry="10" fill="#386e2e" opacity="0.25"/>
  <ellipse cx="22" cy="104" rx="18" ry="12" fill="#386e2e" opacity="0.22"/>
  <ellipse cx="62" cy="56" rx="14" ry="16" fill="#68aa52" opacity="0.2"/>
  <ellipse cx="110" cy="48" rx="12" ry="10" fill="#386e2e" opacity="0.2"/>

  <!-- Grass blade clusters -->
  <line x1="20" y1="44" x2="18" y2="26" stroke="#1e5518" stroke-width="1.6" stroke-linecap="round" opacity="0.8"/>
  <line x1="26" y1="46" x2="28" y2="28" stroke="#1e5518" stroke-width="1.3" stroke-linecap="round" opacity="0.75"/>
  <line x1="32" y1="42" x2="31" y2="24" stroke="#1e5518" stroke-width="1.5" stroke-linecap="round" opacity="0.78"/>

  <line x1="80" y1="28" x2="78" y2="12" stroke="#1e5518" stroke-width="1.5" stroke-linecap="round" opacity="0.75"/>
  <line x1="86" y1="30" x2="88" y2="14" stroke="#1e5518" stroke-width="1.3" stroke-linecap="round" opacity="0.78"/>

  <line x1="100" y1="92" x2="98" y2="74" stroke="#1e5518" stroke-width="1.6" stroke-linecap="round" opacity="0.8"/>
  <line x1="106" y1="94" x2="108" y2="76" stroke="#1e5518" stroke-width="1.3" stroke-linecap="round" opacity="0.75"/>
  <line x1="112" y1="90" x2="111" y2="72" stroke="#1e5518" stroke-width="1.5" stroke-linecap="round" opacity="0.78"/>

  <line x1="48" y1="72" x2="46" y2="54" stroke="#1e5518" stroke-width="1.3" stroke-linecap="round" opacity="0.75"/>
  <line x1="54" y1="74" x2="56" y2="56" stroke="#1e5518" stroke-width="1.5" stroke-linecap="round" opacity="0.78"/>

  <line x1="12" y1="112" x2="10" y2="94" stroke="#1e5518" stroke-width="1.5" stroke-linecap="round" opacity="0.78"/>
  <line x1="18" y1="114" x2="20" y2="96" stroke="#1e5518" stroke-width="1.3" stroke-linecap="round" opacity="0.75"/>

  <line x1="66" y1="12" x2="64" y2="4" stroke="#1e5518" stroke-width="1.3" stroke-linecap="round" opacity="0.7"/>

  <!-- Soft curved grass wisps -->
  <path d="M38 88 Q40 80 42 88" stroke="#2a6825" stroke-width="1.2" fill="none" opacity="0.6"/>
  <path d="M114 36 Q116 28 118 36" stroke="#2a6825" stroke-width="1.2" fill="none" opacity="0.6"/>
  <path d="M8 64 Q10 56 12 64" stroke="#2a6825" stroke-width="1.2" fill="none" opacity="0.6"/>
  <path d="M76 106 Q78 98 80 106" stroke="#2a6825" stroke-width="1.2" fill="none" opacity="0.6"/>

  <!-- Wildflower dots (yellow and pink accents) -->
  <circle cx="16" cy="38" r="2" fill="#e8c840" opacity="0.75"/>
  <circle cx="50" cy="20" r="1.5" fill="#c87ab0" opacity="0.65"/>
  <circle cx="92" cy="58" r="1.8" fill="#e8c840" opacity="0.7"/>
  <circle cx="36" cy="100" r="1.5" fill="#c87ab0" opacity="0.65"/>
  <circle cx="116" cy="40" r="1.8" fill="#e8c840" opacity="0.7"/>
  <circle cx="74" cy="82" r="2" fill="#c87ab0" opacity="0.65"/>
  <circle cx="104" cy="116" r="1.5" fill="#e8c840" opacity="0.7"/>
  <circle cx="8" cy="74" r="1.5" fill="#e8d050" opacity="0.65"/>
  <circle cx="58" cy="48" r="1.2" fill="#c87ab0" opacity="0.6"/>
  <circle cx="42" cy="118" r="1.2" fill="#e8c840" opacity="0.65"/>
</svg>
