<svg xmlns="http://www.w3.org/2000/svg" viewBox="0 0 800 200" width="800" height="200">
  <!-- Arctic sky -->
  <defs>
    <linearGradient id="arctic-sky" x1="0%" y1="0%" x2="0%" y2="100%">
      <stop offset="0%" style="stop-color:#d0e0ed"/>
      <stop offset="100%" style="stop-color:#b0d4e8"/>
    </linearGradient>
  </defs>
  <rect width="800" height="200" fill="url(#arctic-sky)"/>
  <!-- Distant icebergs -->
  <polygon points="50,200 80,140 110,200" fill="#e8edf2"/>
  <polygon points="180,200 220,120 260,200" fill="#d8e4ec"/>
  <polygon points="320,200 360,100 400,200" fill="#e8edf2"/>
  <polygon points="450,200 490,130 530,200" fill="#d8e4ec"/>
  <polygon points="580,200 620,110 660,200" fill="#e8edf2"/>
  <polygon points="700,200 740,140 780,200" fill="#d8e4ec"/>
  <!-- Flat snow terrain -->
  <rect x="0" y="160" width="800" height="40" fill="#e8edf2"/>
  <!-- Ice formations / texture -->
  <path d="M0,200 L0,165 Q100,155 200,168 Q300,158 400,170 Q500,160 600,172 Q700,162 800,168 L800,200 Z" fill="#b0d4e8" opacity="0.6"/>
</svg>
