<svg xmlns="http://www.w3.org/2000/svg" viewBox="0 0 800 200" width="800" height="200">
  <defs>
    <linearGradient id="sy-sky" x1="0" y1="0" x2="0" y2="1">
      <stop offset="0%" stop-color="#8b5e3c"/>
      <stop offset="60%" stop-color="#6b3a1a"/>
      <stop offset="100%" stop-color="#4a2a14"/>
    </linearGradient>
    <linearGradient id="sy-hull1" x1="0" y1="1" x2="0" y2="0">
      <stop offset="0%" stop-color="#3a2f2a"/>
      <stop offset="40%" stop-color="#6b3a1a"/>
      <stop offset="100%" stop-color="#8b5e3c"/>
    </linearGradient>
    <linearGradient id="sy-hull2" x1="0" y1="1" x2="0" y2="0">
      <stop offset="0%" stop-color="#3a2f2a"/>
      <stop offset="50%" stop-color="#9a5a30"/>
      <stop offset="100%" stop-color="#7a4a28"/>
    </linearGradient>
    <linearGradient id="sy-crane" x1="0" y1="0" x2="1" y2="0">
      <stop offset="0%" stop-color="#3a2f2a"/>
      <stop offset="100%" stop-color="#5a4035"/>
    </linearGradient>
  </defs>

  <!-- Murky brown-orange sky -->
  <rect width="800" height="200" fill="url(#sy-sky)"/>

  <!-- Distant hull silhouettes -->
  <polygon points="0,200 0,140 80,120 160,135 200,200" fill="url(#sy-hull1)"/>
  <polygon points="120,200 180,155 260,165 280,200" fill="#3a2f2a"/>
  <polygon points="220,200 280,145 380,160 420,200" fill="url(#sy-hull2)"/>
  <polygon points="350,200 400,130 520,150 580,200" fill="#3a2f2a"/>
  <polygon points="480,200 540,155 640,170 680,200" fill="url(#sy-hull1)"/>
  <polygon points="580,200 640,125 750,145 800,200" fill="#6b3a1a"/>
  <polygon points="680,200 720,160 800,175 800,200" fill="#3a2f2a"/>

  <!-- Dry dock structure -->
  <rect x="0" y="165" width="800" height="35" fill="#3a2f2a"/>
  <rect x="0" y="175" width="800" height="25" fill="#2a221e"/>
  <line x1="0" y1="175" x2="800" y2="175" stroke="#6b3a1a" stroke-width="0.5"/>
  <line x1="0" y1="185" x2="800" y2="185" stroke="#5a3520" stroke-width="0.5"/>

  <!-- Crane 1 -->
  <rect x="95" y="85" width="6" height="95" fill="url(#sy-crane)"/>
  <rect x="88" y="78" width="20" height="10" fill="#3a2f2a"/>
  <line x1="98" y1="78" x2="98" y2="45" stroke="#5a4035" stroke-width="2"/>
  <polygon points="90,45 106,45 98,35" fill="#6b3a1a"/>
  <rect x="70" y="140" width="50" height="6" fill="#3a2f2a"/>

  <!-- Crane 2 -->
  <rect x="420" y="95" width="5" height="85" fill="url(#sy-crane)"/>
  <rect x="408" y="88" width="28" height="10" fill="#3a2f2a"/>
  <line x1="422" y1="88" x2="422" y2="55" stroke="#5a4035" stroke-width="1.5"/>
  <polygon points="412,55 432,55 422,48" fill="#8b5e3c"/>
  <rect x="395" y="155" width="55" height="5" fill="#3a2f2a"/>

  <!-- Crane 3 (distant) -->
  <rect x="650" y="110" width="4" height="70" fill="#3a2f2a"/>
  <rect x="642" y="105" width="20" height="8" fill="#2a221e"/>
  <line x1="652" y1="105" x2="652" y2="80" stroke="#4a3528" stroke-width="1"/>
  <polygon points="646,80 658,80 652,75" fill="#6b3a1a"/>

  <!-- Hull ribs / structural detail -->
  <line x1="45" y1="140" x2="85" y2="125" stroke="#5a3520" stroke-width="0.8"/>
  <line x1="55" y1="155" x2="95" y2="140" stroke="#4a2a14" stroke-width="0.5"/>
  <line x1="280" y1="165" x2="320" y2="155" stroke="#5a3520" stroke-width="0.6"/>
  <line x1="520" y1="155" x2="560" y2="165" stroke="#6b3a1a" stroke-width="0.5"/>
  <line x1="720" y1="145" x2="760" y2="160" stroke="#5a3520" stroke-width="0.6"/>

  <!-- Oxide patches on hulls -->
  <ellipse cx="140" cy="170" rx="25" ry="8" fill="#9a5a30" opacity="0.4"/>
  <ellipse cx="350" cy="175" rx="30" ry="6" fill="#8b5e3c" opacity="0.35"/>
  <ellipse cx="600" cy="168" rx="20" ry="7" fill="#9a5a30" opacity="0.3"/>
</svg>
