<svg xmlns="http://www.w3.org/2000/svg" viewBox="0 0 800 200" width="800" height="200">
  <defs>
    <linearGradient id="wl-sky" x1="0" y1="0" x2="0" y2="1">
      <stop offset="0%" stop-color="#5a5530"/>
      <stop offset="40%" stop-color="#4a4a40"/>
      <stop offset="100%" stop-color="#2e2a1e"/>
    </linearGradient>
    <linearGradient id="wl-ground" x1="0" y1="0" x2="0" y2="1">
      <stop offset="0%" stop-color="#3a4030"/>
      <stop offset="60%" stop-color="#2e2a1e"/>
      <stop offset="100%" stop-color="#1e1a14"/>
    </linearGradient>
    <radialGradient id="wl-smoke1" cx="200" cy="80" r="60" gradientUnits="userSpaceOnUse">
      <stop offset="0%" stop-color="#4a4a40" stop-opacity="0.6"/>
      <stop offset="100%" stop-color="#2e2a1e" stop-opacity="0"/>
    </radialGradient>
    <radialGradient id="wl-smoke2" cx="520" cy="70" r="50" gradientUnits="userSpaceOnUse">
      <stop offset="0%" stop-color="#4a4a40" stop-opacity="0.5"/>
      <stop offset="100%" stop-color="#2e2a1e" stop-opacity="0"/>
    </radialGradient>
  </defs>

  <!-- Hazy ash sky -->
  <rect width="800" height="200" fill="url(#wl-sky)"/>

  <!-- Smoke plumes -->
  <ellipse cx="200" cy="80" rx="55" ry="40" fill="url(#wl-smoke1)"/>
  <ellipse cx="520" cy="70" rx="45" ry="35" fill="url(#wl-smoke2)"/>
  <ellipse cx="680" cy="95" rx="35" ry="25" fill="#4a4a40" opacity="0.25"/>

  <!-- Jagged terrain base -->
  <polygon points="0,200 0,165 50,155 120,170 200,150 280,165 350,145 420,160 500,140 580,155 650,145 720,165 800,170 800,200" fill="url(#wl-ground)"/>
  <polygon points="0,200 30,185 100,195 180,175 260,190 340,170 420,188 500,168 580,192 660,178 740,195 800,185 800,200" fill="#2e2a1e"/>

  <!-- Jagged peaks / ridges -->
  <polygon points="80,170 110,155 140,170" fill="#3a4030"/>
  <polygon points="240,165 270,148 300,165" fill="#2e2a1e"/>
  <polygon points="380,160 410,142 440,160" fill="#3a4030"/>
  <polygon points="520,155 555,138 590,155" fill="#2e2a1e"/>
  <polygon points="640,165 670,150 700,165" fill="#3a4030"/>
  <polygon points="750,170 775,158 800,170" fill="#2e2a1e"/>

  <!-- Barren rock outcrops -->
  <polygon points="25,195 45,182 65,195" fill="#4a4a40"/>
  <polygon points="155,190 180,175 205,190" fill="#3a4030"/>
  <polygon points="320,188 345,172 370,188" fill="#4a4a40"/>
  <polygon points="480,192 505,178 530,192" fill="#3a4030"/>
  <polygon points="620,190 645,176 670,190" fill="#4a4a40"/>
  <polygon points="760,195 780,183 800,195" fill="#3a4030"/>

  <!-- Cracked ground lines -->
  <path d="M 0 198 Q 80 195 160 198 Q 240 192 320 198 Q 400 194 480 198 Q 560 193 640 198 Q 720 195 800 198" stroke="#1e1a14" stroke-width="0.8" fill="none"/>
  <line x1="120" y1="185" x2="180" y2="178" stroke="#2e2a1e" stroke-width="0.5"/>
  <line x1="400" y1="182" x2="460" y2="176" stroke="#2e2a1e" stroke-width="0.5"/>
  <line x1="600" y1="188" x2="660" y2="182" stroke="#2e2a1e" stroke-width="0.5"/>

  <!-- Dead vegetation silhouettes -->
  <line x1="95" y1="195" x2="95" y2="175" stroke="#3a4030" stroke-width="1.5"/>
  <line x1="95" y1="175" x2="88" y2="165" stroke="#3a4030" stroke-width="1"/>
  <line x1="95" y1="175" x2="102" y2="168" stroke="#3a4030" stroke-width="1"/>
  <line x1="420" y1="192" x2="420" y2="172" stroke="#3a4030" stroke-width="1.2"/>
  <line x1="420" y1="172" x2="414" y2="162" stroke="#3a4030" stroke-width="0.8"/>
  <line x1="420" y1="172" x2="426" y2="165" stroke="#3a4030" stroke-width="0.8"/>
</svg>
