<svg xmlns="http://www.w3.org/2000/svg" viewBox="0 0 800 200" width="800" height="200">
  <!-- Sky gradient -->
  <defs>
    <linearGradient id="coastal-sky" x1="0%" y1="0%" x2="0%" y2="100%">
      <stop offset="0%" style="stop-color:#87ceeb"/>
      <stop offset="100%" style="stop-color:#b8d4e8"/>
    </linearGradient>
  </defs>
  <rect width="800" height="200" fill="url(#coastal-sky)"/>
  <!-- Distant clouds -->
  <ellipse cx="120" cy="45" rx="60" ry="25" fill="#f5f5f5" opacity="0.9"/>
  <ellipse cx="350" cy="35" rx="80" ry="30" fill="#f0f0f0" opacity="0.85"/>
  <ellipse cx="600" cy="50" rx="55" ry="22" fill="#f5f5f5" opacity="0.9"/>
  <!-- Ocean line -->
  <rect x="0" y="140" width="800" height="60" fill="#4a90b8"/>
  <!-- Rolling hills - back layer -->
  <path d="M0,200 L0,160 Q100,120 200,150 Q300,100 400,140 Q500,110 600,150 Q700,130 800,145 L800,200 Z" fill="#3d6b4f"/>
  <!-- Rolling hills - front layer -->
  <path d="M0,200 L0,170 Q150,140 250,175 Q350,150 450,180 Q550,155 650,175 Q750,160 800,170 L800,200 Z" fill="#4a7c59"/>
</svg>
