<svg xmlns="http://www.w3.org/2000/svg" viewBox="0 0 800 200" width="800" height="200">
  <defs>
    <linearGradient id="sh-sky" x1="0" y1="0" x2="0" y2="1">
      <stop offset="0%" stop-color="#1a1a1a"/>
      <stop offset="100%" stop-color="#0a0a0a"/>
    </linearGradient>
    <linearGradient id="sh-wall" x1="0" y1="1" x2="0" y2="0">
      <stop offset="0%" stop-color="#0a0a0a"/>
      <stop offset="30%" stop-color="#1a1a1a"/>
      <stop offset="100%" stop-color="#2a2a2a"/>
    </linearGradient>
    <linearGradient id="sh-red" x1="0" y1="0" x2="0" y2="1">
      <stop offset="0%" stop-color="#cc0000"/>
      <stop offset="100%" stop-color="#8a0000"/>
    </linearGradient>
    <radialGradient id="sh-glow1" cx="200" cy="120" r="80" gradientUnits="userSpaceOnUse">
      <stop offset="0%" stop-color="#cc0000" stop-opacity="0.4"/>
      <stop offset="100%" stop-color="#8a0000" stop-opacity="0"/>
    </radialGradient>
    <radialGradient id="sh-glow2" cx="600" cy="110" r="70" gradientUnits="userSpaceOnUse">
      <stop offset="0%" stop-color="#cc0000" stop-opacity="0.35"/>
      <stop offset="100%" stop-color="#8a0000" stop-opacity="0"/>
    </radialGradient>
  </defs>

  <!-- Dark sky -->
  <rect width="800" height="200" fill="url(#sh-sky)"/>

  <!-- Base platform -->
  <rect x="0" y="150" width="800" height="50" fill="#0a0a0a"/>
  <line x1="0" y1="155" x2="800" y2="155" stroke="#1a1a1a" stroke-width="0.5"/>

  <!-- Central fortress tower -->
  <polygon points="350,200 350,60 450,60 450,200" fill="url(#sh-wall)"/>
  <rect x="390" y="45" width="20" height="25" fill="#2a2a2a"/>
  <rect x="392" y="40" width="16" height="8" fill="#1a1a1a"/>
  <rect x="395" y="35" width="10" height="8" fill="#cc0000"/>
  <rect x="397" y="32" width="6" height="4" fill="#8a0000"/>
  <line x1="350" y1="90" x2="450" y2="90" stroke="#0a0a0a" stroke-width="0.5"/>
  <line x1="350" y1="120" x2="450" y2="120" stroke="#0a0a0a" stroke-width="0.5"/>
  <line x1="395" y1="60" x2="405" y2="60" stroke="#cc0000" stroke-width="0.8"/>

  <!-- Left angular wall -->
  <polygon points="0,200 0,100 120,120 180,200" fill="url(#sh-wall)"/>
  <rect x="40" y="130" width="15" height="25" fill="#2a2a2a"/>
  <rect x="42" y="125" width="11" height="8" fill="#cc0000"/>
  <line x1="0" y1="140" x2="115" y2="135" stroke="#0a0a0a" stroke-width="0.5"/>
  <rect x="20" y="175" width="25" height="8" fill="#8a0000"/>
  <ellipse cx="100" cy="165" rx="30" ry="15" fill="url(#sh-glow1)"/>

  <!-- Right angular wall -->
  <polygon points="800,200 800,95 680,115 620,200" fill="url(#sh-wall)"/>
  <rect x="745" y="128" width="15" height="25" fill="#2a2a2a"/>
  <rect x="747" y="123" width="11" height="8" fill="#cc0000"/>
  <line x1="685" y1="120" x2="800" y2="135" stroke="#0a0a0a" stroke-width="0.5"/>
  <rect x="683" y="178" width="25" height="8" fill="#8a0000"/>
  <ellipse cx="700" cy="168" rx="30" ry="15" fill="url(#sh-glow2)"/>

  <!-- Secondary angular structures -->
  <polygon points="200,200 200,140 280,155 320,200" fill="url(#sh-wall)"/>
  <rect x="230" y="165" width="12" height="18" fill="#2a2a2a"/>
  <rect x="232" y="161" width="8" height="6" fill="#cc0000"/>
  <polygon points="600,200 600,142 520,158 480,200" fill="url(#sh-wall)"/>
  <rect x="558" y="168" width="12" height="18" fill="#2a2a2a"/>
  <rect x="560" y="164" width="8" height="6" fill="#cc0000"/>
  <line x1="522" y1="163" x2="600" y2="158" stroke="#0a0a0a" stroke-width="0.4"/>

  <!-- Red accent strips on central tower -->
  <rect x="350" y="85" width="100" height="4" fill="url(#sh-red)"/>
  <rect x="350" y="105" width="100" height="4" fill="url(#sh-red)"/>
  <rect x="350" y="125" width="100" height="4" fill="url(#sh-red)"/>

  <!-- Vektran eye slit -->
  <rect x="398" y="68" width="4" height="12" fill="#cc0000"/>
</svg>
