<svg xmlns="http://www.w3.org/2000/svg" viewBox="0 0 64 64">
  <defs>
    <linearGradient id="pg-metal" x1="0%" y1="0%" x2="100%" y2="100%">
      <stop offset="0%" stop-color="#2a2a2a"/>
      <stop offset="50%" stop-color="#4a4a4a"/>
      <stop offset="100%" stop-color="#2a2a2a"/>
    </linearGradient>
    <linearGradient id="pg-hole" x1="0%" y1="0%" x2="0%" y2="100%">
      <stop offset="0%" stop-color="#1a1a1a"/>
      <stop offset="100%" stop-color="#0a0a0a"/>
    </linearGradient>
  </defs>
  <!-- Outer frame -->
  <rect x="8" y="8" width="48" height="48" fill="#2a2a2a"/>
  <rect x="10" y="10" width="44" height="44" fill="url(#pg-metal)"/>
  <!-- Grid pattern - horizontal bars -->
  <rect x="10" y="16" width="44" height="4" fill="#3a3a3a"/>
  <rect x="10" y="26" width="44" height="4" fill="#3a3a3a"/>
  <rect x="10" y="36" width="44" height="4" fill="#3a3a3a"/>
  <rect x="10" y="46" width="44" height="4" fill="#3a3a3a"/>
  <!-- Grid pattern - vertical bars -->
  <rect x="16" y="10" width="4" height="44" fill="#3a3a3a"/>
  <rect x="26" y="10" width="4" height="44" fill="#3a3a3a"/>
  <rect x="36" y="10" width="4" height="44" fill="#3a3a3a"/>
  <rect x="46" y="10" width="4" height="44" fill="#3a3a3a"/>
  <!-- Drain openings (dark) -->
  <rect x="20" y="20" width="6" height="6" fill="url(#pg-hole)"/>
  <rect x="34" y="20" width="6" height="6" fill="url(#pg-hole)"/>
  <rect x="20" y="34" width="6" height="6" fill="url(#pg-hole)"/>
  <rect x="34" y="34" width="6" height="6" fill="url(#pg-hole)"/>
</svg>
