<svg xmlns="http://www.w3.org/2000/svg" viewBox="0 0 64 64">
  <defs>
    <linearGradient id="psm-rust1" x1="0%" y1="0%" x2="100%" y2="100%">
      <stop offset="0%" stop-color="#8b5e3c"/>
      <stop offset="100%" stop-color="#6b3a1a"/>
    </linearGradient>
    <linearGradient id="psm-rust2" x1="0%" y1="0%" x2="0%" y2="100%">
      <stop offset="0%" stop-color="#6b3a1a"/>
      <stop offset="100%" stop-color="#3a2f2a"/>
    </linearGradient>
  </defs>
  <!-- Irregular scrap pieces - bent plates -->
  <polygon points="12,44 28,38 32,52 16,54" fill="url(#psm-rust1)"/>
  <polygon points="36,42 52,36 56,48 40,52" fill="url(#psm-rust2)"/>
  <polygon points="8,28 24,22 28,34 14,38" fill="#6b3a1a"/>
  <polygon points="38,24 50,18 54,28 42,32" fill="#8b5e3c"/>
  <!-- Sharp edge fragment -->
  <polygon points="20,12 36,8 40,20 24,24" fill="#3a2f2a"/>
  <!-- Small debris -->
  <rect x="48" y="44" width="8" height="6" transform="rotate(-15 52 47)" fill="#6b3a1a"/>
  <polygon points="4,48 10,46 12,52 6,54" fill="#8b5e3c"/>
</svg>
