<svg xmlns="http://www.w3.org/2000/svg" viewBox="0 0 64 64">
  <!-- Left track -->
  <path d="M 20 4 L 24 4 L 24 60 L 20 60 Z" fill="#6a6a5a" opacity="0.6"/>
  <!-- Right track -->
  <path d="M 40 4 L 44 4 L 44 60 L 40 60 Z" fill="#6a6a5a" opacity="0.6"/>
  <!-- Herringbone pattern - left track -->
  <path d="M 20 8 L 24 12 M 20 20 L 24 24 M 20 32 L 24 36 M 20 44 L 24 48 M 20 56 L 24 60" stroke="#5a5a4a" stroke-width="0.5" opacity="0.5"/>
  <path d="M 24 8 L 20 12 M 24 20 L 20 24 M 24 32 L 20 36 M 24 44 L 20 48 M 24 56 L 20 60" stroke="#5a5a4a" stroke-width="0.5" opacity="0.5"/>
  <!-- Herringbone pattern - right track -->
  <path d="M 40 8 L 44 12 M 40 20 L 44 24 M 40 32 L 44 36 M 40 44 L 44 48 M 40 56 L 44 60" stroke="#5a5a4a" stroke-width="0.5" opacity="0.5"/>
  <path d="M 44 8 L 40 12 M 44 20 L 40 24 M 44 32 L 40 36 M 44 44 L 40 48 M 44 56 L 40 60" stroke="#5a5a4a" stroke-width="0.5" opacity="0.5"/>
</svg>
