<svg xmlns="http://www.w3.org/2000/svg" viewBox="0 0 64 64">
  <defs>
    <linearGradient id="pcc-cable" x1="0%" y1="0%" x2="100%" y2="0%">
      <stop offset="0%" stop-color="#1a1a1a"/>
      <stop offset="50%" stop-color="#2a2a2a"/>
      <stop offset="100%" stop-color="#1a1a1a"/>
    </linearGradient>
    <linearGradient id="pcc-red" x1="0%" y1="0%" x2="0%" y2="100%">
      <stop offset="0%" stop-color="#8a0000"/>
      <stop offset="100%" stop-color="#cc0000"/>
    </linearGradient>
  </defs>
  <!-- Cable bundle -->
  <ellipse cx="32" cy="20" rx="16" ry="6" fill="#1a1a1a"/>
  <path d="M16 20 Q20 40 18 56" fill="none" stroke="#2a2a2a" stroke-width="5"/>
  <path d="M32 18 Q30 42 34 58" fill="none" stroke="#1a1a1a" stroke-width="5"/>
  <path d="M48 20 Q44 38 46 54" fill="none" stroke="#2a2a2a" stroke-width="5"/>
  <!-- Connectors at ends -->
  <rect x="14" y="52" width="8" height="6" fill="#2a2a2a"/>
  <rect x="28" y="54" width="8" height="6" fill="#2a2a2a"/>
  <rect x="42" y="50" width="8" height="6" fill="#2a2a2a"/>
  <!-- Red power cable accent -->
  <path d="M24 22 Q26 36 22 50" fill="none" stroke="#8a0000" stroke-width="3"/>
  <rect x="18" y="48" width="6" height="4" fill="url(#pcc-red)"/>
  <!-- Junction box -->
  <rect x="26" y="8" width="12" height="8" fill="#1a1a1a"/>
  <rect x="28" y="10" width="8" height="4" fill="#2a2a2a"/>
</svg>
