<svg xmlns="http://www.w3.org/2000/svg" viewBox="0 0 64 64">
  <defs>
    <linearGradient id="pw-red" x1="0%" y1="0%" x2="0%" y2="100%">
      <stop offset="0%" stop-color="#5a3a3a"/>
      <stop offset="100%" stop-color="#3a2a2a"/>
    </linearGradient>
    <linearGradient id="pw-blue" x1="0%" y1="0%" x2="0%" y2="100%">
      <stop offset="0%" stop-color="#3a4a5a"/>
      <stop offset="100%" stop-color="#2a3a4a"/>
    </linearGradient>
    <linearGradient id="pw-yellow" x1="0%" y1="0%" x2="0%" y2="100%">
      <stop offset="0%" stop-color="#5a5a3a"/>
      <stop offset="100%" stop-color="#4a4a2a"/>
    </linearGradient>
  </defs>
  <!-- Dangling wires from top -->
  <path d="M16 8 Q20 24 14 40 Q18 52 12 60" fill="none" stroke="#5a3a3a" stroke-width="3"/>
  <path d="M32 8 Q28 28 34 44 Q30 56 36 62" fill="none" stroke="#3a4a5a" stroke-width="3"/>
  <path d="M48 8 Q52 20 46 36 Q50 48 44 58" fill="none" stroke="#5a5a3a" stroke-width="3"/>
  <!-- Coiled section -->
  <ellipse cx="24" cy="48" rx="8" ry="4" fill="none" stroke="#5a3a3a" stroke-width="2.5"/>
  <ellipse cx="24" cy="48" rx="5" ry="2.5" fill="none" stroke="#5a3a3a" stroke-width="2"/>
  <!-- Connector at end -->
  <rect x="10" y="56" width="6" height="4" fill="#2a2a2a"/>
  <rect x="32" y="58" width="6" height="4" fill="#2a2a2a"/>
  <rect x="42" y="54" width="6" height="4" fill="#2a2a2a"/>
  <!-- Junction point -->
  <circle cx="32" cy="20" r="4" fill="#1a1a30"/>
</svg>
