<svg xmlns="http://www.w3.org/2000/svg" viewBox="0 0 64 64">
  <defs>
    <linearGradient id="sf-wall" x1="0%" y1="0%" x2="100%" y2="0%">
      <stop offset="0%" stop-color="#2a2a2a"/>
      <stop offset="50%" stop-color="#4a4a4a"/>
      <stop offset="100%" stop-color="#2a2a2a"/>
    </linearGradient>
    <linearGradient id="sf-roof" x1="0%" y1="0%" x2="0%" y2="100%">
      <stop offset="0%" stop-color="#4a4a4a"/>
      <stop offset="100%" stop-color="#3a3a3a"/>
    </linearGradient>
    <linearGradient id="sf-duct" x1="0%" y1="0%" x2="100%" y2="0%">
      <stop offset="0%" stop-color="#3a3a3a"/>
      <stop offset="100%" stop-color="#4a4a4a"/>
    </linearGradient>
  </defs>
  <!-- Main building body -->
  <rect x="8" y="28" width="48" height="36" fill="url(#sf-wall)"/>
  <!-- Roof -->
  <rect x="6" y="24" width="52" height="6" fill="url(#sf-roof)"/>
  <!-- Ventilation ducts on roof -->
  <rect x="12" y="18" width="8" height="8" fill="url(#sf-duct)"/>
  <rect x="24" y="16" width="10" height="10" fill="url(#sf-duct)"/>
  <rect x="38" y="18" width="8" height="8" fill="url(#sf-duct)"/>
  <rect x="50" y="20" width="6" height="6" fill="url(#sf-duct)"/>
  <!-- Duct caps -->
  <rect x="14" y="14" width="4" height="4" fill="#2a2a2a"/>
  <rect x="28" y="12" width="2" height="4" fill="#2a2a2a"/>
  <rect x="40" y="14" width="4" height="4" fill="#2a2a2a"/>
  <!-- Loading bay door -->
  <rect x="22" y="44" width="20" height="16" fill="#1a1a1a"/>
  <rect x="24" y="46" width="16" height="12" fill="#2a2a2a"/>
  <!-- Door frame / warning stripe -->
  <rect x="22" y="44" width="2" height="16" fill="#8a7a20"/>
  <rect x="40" y="44" width="2" height="16" fill="#8a7a20"/>
  <rect x="22" y="44" width="20" height="2" fill="#8a7a20"/>
  <!-- Windows -->
  <rect x="12" y="34" width="6" height="6" fill="#3a4a5a"/>
  <rect x="46" y="34" width="6" height="6" fill="#3a4a5a"/>
  <!-- Pipe copper accent -->
  <rect x="56" y="32" width="4" height="24" fill="#6a4a3a"/>
  <circle cx="58" cy="32" r="2" fill="#5a3a2a"/>
</svg>
