<svg xmlns="http://www.w3.org/2000/svg" viewBox="0 0 64 64">
  <!-- Hexagonal base footprint -->
  <polygon points="32,4 56,16 56,48 32,60 8,48 8,16" fill="#3a3a3a" stroke="#2a2a2a" stroke-width="1.5"/>
  <!-- Inner armored section -->
  <polygon points="32,14 46,22 46,42 32,50 18,42 18,22" fill="#444444" stroke="#383838" stroke-width="1"/>
  <!-- Armored panel lines -->
  <line x1="18" y1="22" x2="46" y2="22" stroke="#505050" stroke-width="0.5"/>
  <line x1="18" y1="42" x2="46" y2="42" stroke="#505050" stroke-width="0.5"/>
  <line x1="32" y1="14" x2="32" y2="50" stroke="#505050" stroke-width="0.5"/>
  <!-- Central command module -->
  <circle cx="32" cy="32" r="8" fill="#4a4a4a" stroke="#555555" stroke-width="1"/>
  <!-- Imperial insignia accent -->
  <circle cx="32" cy="32" r="4" fill="#333333" stroke="#cc0000" stroke-width="1.5"/>
  <!-- Radar/sensor arrays at top and bottom -->
  <circle cx="32" cy="6" r="3" fill="#555555" stroke="#444444" stroke-width="0.5"/>
  <circle cx="32" cy="58" r="3" fill="#555555" stroke="#444444" stroke-width="0.5"/>
  <!-- Sensor nodes at side vertices -->
  <circle cx="8" cy="16" r="2" fill="#505050"/>
  <circle cx="56" cy="16" r="2" fill="#505050"/>
  <circle cx="8" cy="48" r="2" fill="#505050"/>
  <circle cx="56" cy="48" r="2" fill="#505050"/>
  <!-- Blast door entries -->
  <rect x="28" y="2" width="8" height="6" fill="#2a2a2a" rx="1"/>
  <rect x="28" y="56" width="8" height="6" fill="#2a2a2a" rx="1"/>
</svg>
