<svg xmlns="http://www.w3.org/2000/svg" viewBox="0 0 64 64">
  <defs>
    <linearGradient id="sdt-trunk" x1="0%" y1="0%" x2="100%" y2="0%">
      <stop offset="0%" stop-color="#2e2a1e"/>
      <stop offset="50%" stop-color="#4a4a40"/>
      <stop offset="100%" stop-color="#2e2a1e"/>
    </linearGradient>
    <linearGradient id="sdt-bark" x1="0%" y1="0%" x2="0%" y2="100%">
      <stop offset="0%" stop-color="#3a4030"/>
      <stop offset="100%" stop-color="#2e2a1e"/>
    </linearGradient>
    <linearGradient id="sdt-branch" x1="0%" y1="0%" x2="0%" y2="100%">
      <stop offset="0%" stop-color="#4a4a40"/>
      <stop offset="100%" stop-color="#2e2a1e"/>
    </linearGradient>
  </defs>
  <!-- Main trunk -->
  <path d="M30 64 L32 64 L34 20 Q33 8 32 4 Q31 8 30 20 Z" fill="url(#sdt-trunk)"/>
  <!-- Bark texture / cracks -->
  <path d="M31 50 L31 30" stroke="#2e2a1e" stroke-width="1" fill="none"/>
  <path d="M33 45 L33 25" stroke="#2e2a1e" stroke-width="0.8" fill="none"/>
  <path d="M30 38 L32 36 L34 38" stroke="#2e2a1e" stroke-width="0.6" fill="none"/>
  <!-- Gnarled branches -->
  <path d="M32 28 L20 18 L18 14" stroke="url(#sdt-branch)" stroke-width="2.5" fill="none" stroke-linecap="round"/>
  <path d="M32 24 L42 12 L46 8" stroke="url(#sdt-branch)" stroke-width="2" fill="none" stroke-linecap="round"/>
  <path d="M32 20 L24 8 L22 4" stroke="url(#sdt-branch)" stroke-width="1.5" fill="none" stroke-linecap="round"/>
  <path d="M32 16 L38 6 L40 2" stroke="url(#sdt-branch)" stroke-width="1.5" fill="none" stroke-linecap="round"/>
  <!-- Lower dead branches -->
  <path d="M30 44 L22 48" stroke="#3a4030" stroke-width="1.5" fill="none" stroke-linecap="round"/>
  <path d="M34 40 L42 36" stroke="#3a4030" stroke-width="1.2" fill="none" stroke-linecap="round"/>
  <path d="M30 56 L26 60" stroke="#2e2a1e" stroke-width="1" fill="none" stroke-linecap="round"/>
  <path d="M34 54 L38 58" stroke="#2e2a1e" stroke-width="1" fill="none" stroke-linecap="round"/>
  <!-- Charred patches -->
  <ellipse cx="28" cy="35" rx="3" ry="4" fill="#2e2a1e"/>
  <ellipse cx="36" cy="28" rx="2" ry="3" fill="#2e2a1e"/>
  <!-- Root base -->
  <path d="M28 62 L26 64 L38 64 L36 62 Z" fill="#2e2a1e"/>
  <ellipse cx="32" cy="63" rx="8" ry="2" fill="#3a4030"/>
</svg>
