<svg xmlns="http://www.w3.org/2000/svg" viewBox="0 0 64 64">
  <!-- Main prefab building body -->
  <rect x="6" y="14" width="52" height="36" rx="2" ry="2" fill="#6b7a56" stroke="#4a5a3a" stroke-width="1.5"/>
  <!-- Reinforced wall panels (4 quadrants) -->
  <rect x="8" y="16" width="23" height="15" fill="#5e6d48" stroke="#4a5a3a" stroke-width="0.5"/>
  <rect x="33" y="16" width="23" height="15" fill="#5e6d48" stroke="#4a5a3a" stroke-width="0.5"/>
  <rect x="8" y="33" width="23" height="15" fill="#5e6d48" stroke="#4a5a3a" stroke-width="0.5"/>
  <rect x="33" y="33" width="23" height="15" fill="#5e6d48" stroke="#4a5a3a" stroke-width="0.5"/>
  <!-- Camo netting patches (symmetric pairs) -->
  <polygon points="10,18 20,22 14,28" fill="#7a8a66" opacity="0.35"/>
  <polygon points="54,18 44,22 50,28" fill="#7a8a66" opacity="0.35"/>
  <polygon points="18,38 28,42 22,48" fill="#7a8a66" opacity="0.35"/>
  <polygon points="46,38 36,42 42,48" fill="#7a8a66" opacity="0.35"/>
  <!-- Roof structural lines -->
  <line x1="32" y1="14" x2="32" y2="50" stroke="#4a5a3a" stroke-width="1"/>
  <line x1="6" y1="32" x2="58" y2="32" stroke="#4a5a3a" stroke-width="0.6"/>
  <!-- Entry door (bottom center) -->
  <rect x="26" y="44" width="12" height="6" fill="#3a4a2a" stroke="#2a3a1a" stroke-width="0.5"/>
  <!-- Rebel Alliance starbird insignia on roof -->
  <polygon points="32,20 35,26 39,28 35,29 32,34 29,29 25,28 29,26" fill="#c45a2a" opacity="0.65"/>
  <!-- Supply crates beside building (symmetric) -->
  <rect x="2" y="20" width="4" height="4" fill="#8a7a5a" stroke="#6a5a3a" stroke-width="0.5"/>
  <rect x="58" y="20" width="4" height="4" fill="#8a7a5a" stroke="#6a5a3a" stroke-width="0.5"/>
  <rect x="1" y="26" width="4" height="3" fill="#7a6a4a" stroke="#6a5a3a" stroke-width="0.5"/>
  <rect x="59" y="26" width="4" height="3" fill="#7a6a4a" stroke="#6a5a3a" stroke-width="0.5"/>
  <!-- Ventilation units on roof (symmetric) -->
  <rect x="14" y="22" width="4" height="3" fill="#556b44" stroke="#4a5a3a" stroke-width="0.4"/>
  <rect x="46" y="22" width="4" height="3" fill="#556b44" stroke="#4a5a3a" stroke-width="0.4"/>
  <!-- Communication antenna mast -->
  <circle cx="32" cy="17" r="1.5" fill="#555555" stroke="#444444" stroke-width="0.5"/>
  <!-- Roof edge highlight -->
  <line x1="6" y1="14" x2="58" y2="14" stroke="#8a9a76" stroke-width="0.6" opacity="0.5"/>
</svg>
