<svg xmlns="http://www.w3.org/2000/svg" viewBox="0 0 64 64" width="64" height="64">
  <defs>
    <radialGradient id="beacon" cx="50%" cy="50%" r="50%">
      <stop offset="0%" stop-color="#ffffff"/>
      <stop offset="35%" stop-color="#aaddff"/>
      <stop offset="70%" stop-color="#4488ff"/>
      <stop offset="100%" stop-color="#2266cc" stop-opacity="0.6"/>
    </radialGradient>
    <radialGradient id="glow" cx="50%" cy="50%" r="50%">
      <stop offset="0%" stop-color="#4488ff" stop-opacity="0.3"/>
      <stop offset="100%" stop-color="#4488ff" stop-opacity="0"/>
    </radialGradient>
  </defs>
  <!-- Outer beacon glow -->
  <circle cx="32" cy="32" r="31" fill="url(#glow)"/>
  <!-- Base tier - weathered ancient stone -->
  <circle cx="32" cy="32" r="28" fill="#7a7a6a"/>
  <circle cx="32" cy="32" r="26" fill="#8a8a7a"/>
  <!-- Carved channel details (4 symmetrical buttresses) -->
  <rect x="30.5" y="3" width="3" height="8" fill="#6a6a5a" rx="1.5"/>
  <rect x="30.5" y="53" width="3" height="8" fill="#6a6a5a" rx="1.5"/>
  <rect x="3" y="30.5" width="8" height="3" fill="#6a6a5a" rx="1.5"/>
  <rect x="53" y="30.5" width="8" height="3" fill="#6a6a5a" rx="1.5"/>
  <!-- Diagonal buttresses -->
  <rect x="30.5" y="3" width="3" height="7" fill="#6a6a5a" rx="1.5" transform="rotate(45 32 32)"/>
  <rect x="30.5" y="3" width="3" height="7" fill="#6a6a5a" rx="1.5" transform="rotate(135 32 32)"/>
  <rect x="30.5" y="3" width="3" height="7" fill="#6a6a5a" rx="1.5" transform="rotate(225 32 32)"/>
  <rect x="30.5" y="3" width="3" height="7" fill="#6a6a5a" rx="1.5" transform="rotate(315 32 32)"/>
  <!-- Second tier -->
  <circle cx="32" cy="32" r="22" fill="#6a6a5a"/>
  <circle cx="32" cy="32" r="20" fill="#8a8a7a"/>
  <!-- Third tier -->
  <circle cx="32" cy="32" r="17" fill="#5a5a50"/>
  <circle cx="32" cy="32" r="15" fill="#7a7a6a"/>
  <!-- Upper platform -->
  <circle cx="32" cy="32" r="12" fill="#5a5a50"/>
  <circle cx="32" cy="32" r="10" fill="#6a6a5a"/>
  <!-- Force-imbued rune marks (subtle) -->
  <circle cx="32" cy="20" r="1" fill="#6688aa" opacity="0.5"/>
  <circle cx="32" cy="44" r="1" fill="#6688aa" opacity="0.5"/>
  <circle cx="20" cy="32" r="1" fill="#6688aa" opacity="0.5"/>
  <circle cx="44" cy="32" r="1" fill="#6688aa" opacity="0.5"/>
  <!-- Beacon chamber -->
  <circle cx="32" cy="32" r="8" fill="url(#beacon)"/>
  <!-- Beacon core -->
  <circle cx="32" cy="32" r="3" fill="#aaddff"/>
  <circle cx="32" cy="32" r="1.5" fill="#ffffff"/>
</svg>
