<svg xmlns="http://www.w3.org/2000/svg" viewBox="0 0 64 64">
  <defs>
    <radialGradient id="dish-surface" cx="50%" cy="50%" r="50%">
      <stop offset="0%" stop-color="#d0d0d0"/>
      <stop offset="60%" stop-color="#b8b8b8"/>
      <stop offset="100%" stop-color="#909090"/>
    </radialGradient>
    <radialGradient id="dish-inner" cx="50%" cy="50%" r="50%">
      <stop offset="0%" stop-color="#c8c8c8"/>
      <stop offset="100%" stop-color="#aaaaaa"/>
    </radialGradient>
    <linearGradient id="yoke-metal" x1="0" y1="0" x2="1" y2="0">
      <stop offset="0%" stop-color="#666666"/>
      <stop offset="50%" stop-color="#777777"/>
      <stop offset="100%" stop-color="#666666"/>
    </linearGradient>
  </defs>
  <!-- Equipment base panels -->
  <rect x="24" y="52" width="16" height="8" rx="1" fill="#555555" stroke="#444444" stroke-width="0.8"/>
  <rect x="20" y="54" width="6" height="6" rx="0.5" fill="#4a5a3a" stroke="#3a4a2a" stroke-width="0.6"/>
  <rect x="38" y="54" width="6" height="6" rx="0.5" fill="#4a5a3a" stroke="#3a4a2a" stroke-width="0.6"/>
  <!-- Rotating mount base -->
  <circle cx="32" cy="32" r="4" fill="#555555" stroke="#444444" stroke-width="1"/>
  <!-- Yoke / support cross bars -->
  <line x1="10" y1="32" x2="54" y2="32" stroke="url(#yoke-metal)" stroke-width="3" stroke-linecap="round"/>
  <line x1="32" y1="10" x2="32" y2="54" stroke="url(#yoke-metal)" stroke-width="3" stroke-linecap="round"/>
  <!-- Outer dish rim -->
  <circle cx="32" cy="32" r="24" fill="url(#dish-surface)" stroke="#777777" stroke-width="1.5"/>
  <!-- Concentric depth rings -->
  <circle cx="32" cy="32" r="20" fill="none" stroke="#a0a0a0" stroke-width="0.8" opacity="0.6"/>
  <circle cx="32" cy="32" r="15" fill="none" stroke="#a0a0a0" stroke-width="0.7" opacity="0.5"/>
  <circle cx="32" cy="32" r="10" fill="url(#dish-inner)" stroke="#999999" stroke-width="0.6"/>
  <!-- Dish surface panel lines (radial) -->
  <line x1="32" y1="8" x2="32" y2="56" stroke="#a8a8a8" stroke-width="0.6" opacity="0.4"/>
  <line x1="8" y1="32" x2="56" y2="32" stroke="#a8a8a8" stroke-width="0.6" opacity="0.4"/>
  <line x1="14" y1="14" x2="50" y2="50" stroke="#a8a8a8" stroke-width="0.5" opacity="0.3"/>
  <line x1="50" y1="14" x2="14" y2="50" stroke="#a8a8a8" stroke-width="0.5" opacity="0.3"/>
  <!-- Yoke arms over dish -->
  <line x1="12" y1="32" x2="52" y2="32" stroke="#666666" stroke-width="2.5" stroke-linecap="round"/>
  <line x1="32" y1="12" x2="32" y2="52" stroke="#666666" stroke-width="2.5" stroke-linecap="round"/>
  <!-- Central feed horn / receiver -->
  <circle cx="32" cy="32" r="5" fill="#606060" stroke="#444444" stroke-width="1.2"/>
  <circle cx="32" cy="32" r="2.5" fill="#777777"/>
  <circle cx="32" cy="32" r="1" fill="#999999"/>
  <!-- Bolts / attachment points on yoke ends -->
  <circle cx="12" cy="32" r="1.5" fill="#555555" stroke="#444444" stroke-width="0.5"/>
  <circle cx="52" cy="32" r="1.5" fill="#555555" stroke="#444444" stroke-width="0.5"/>
  <circle cx="32" cy="12" r="1.5" fill="#555555" stroke="#444444" stroke-width="0.5"/>
  <circle cx="32" cy="52" r="1.5" fill="#555555" stroke="#444444" stroke-width="0.5"/>
  <!-- Equipment panel details on base -->
  <rect x="26" y="53" width="3" height="2" rx="0.3" fill="#3a5a3a" opacity="0.7"/>
  <rect x="35" y="53" width="3" height="2" rx="0.3" fill="#3a5a3a" opacity="0.7"/>
  <!-- Subtle dish surface reflection highlight -->
  <ellipse cx="26" cy="24" rx="6" ry="4" fill="#ffffff" opacity="0.08"/>
  <ellipse cx="38" cy="24" rx="6" ry="4" fill="#ffffff" opacity="0.08"/>
</svg>
