<svg xmlns="http://www.w3.org/2000/svg" viewBox="0 0 64 64">
  <defs>
    <linearGradient id="saa-mast" x1="0%" y1="0%" x2="100%" y2="0%">
      <stop offset="0%" stop-color="#2a2a40"/>
      <stop offset="50%" stop-color="#5a5a6a"/>
      <stop offset="100%" stop-color="#2a2a40"/>
    </linearGradient>
    <linearGradient id="saa-dipole" x1="0%" y1="0%" x2="0%" y2="100%">
      <stop offset="0%" stop-color="#3a6a8a"/>
      <stop offset="100%" stop-color="#1a1a30"/>
    </linearGradient>
  </defs>
  <!-- Base platform -->
  <rect x="24" y="56" width="16" height="8" fill="#0c0c14"/>
  <!-- Main mast -->
  <rect x="30" y="8" width="4" height="52" fill="url(#saa-mast)"/>
  <!-- Crossbars -->
  <rect x="12" y="14" width="40" height="2" fill="url(#saa-mast)"/>
  <rect x="16" y="26" width="32" height="2" fill="url(#saa-mast)"/>
  <rect x="20" y="38" width="24" height="2" fill="url(#saa-mast)"/>
  <!-- Dipole elements - top row -->
  <line x1="16" y1="14" x2="16" y2="8" stroke="#3a6a8a" stroke-width="1.5"/>
  <line x1="16" y1="14" x2="16" y2="20" stroke="#3a6a8a" stroke-width="1.5"/>
  <line x1="32" y1="14" x2="32" y2="6" stroke="#3a6a8a" stroke-width="1.5"/>
  <line x1="32" y1="14" x2="32" y2="22" stroke="#3a6a8a" stroke-width="1.5"/>
  <line x1="48" y1="14" x2="48" y2="8" stroke="#3a6a8a" stroke-width="1.5"/>
  <line x1="48" y1="14" x2="48" y2="20" stroke="#3a6a8a" stroke-width="1.5"/>
  <!-- Dipole elements - middle row -->
  <line x1="22" y1="26" x2="22" y2="20" stroke="#5a5a6a" stroke-width="1"/>
  <line x1="22" y1="26" x2="22" y2="32" stroke="#5a5a6a" stroke-width="1"/>
  <line x1="42" y1="26" x2="42" y2="20" stroke="#5a5a6a" stroke-width="1"/>
  <line x1="42" y1="26" x2="42" y2="32" stroke="#5a5a6a" stroke-width="1"/>
  <!-- Dipole elements - bottom row -->
  <line x1="28" y1="38" x2="28" y2="34" stroke="#5a5a6a" stroke-width="1"/>
  <line x1="28" y1="38" x2="28" y2="42" stroke="#5a5a6a" stroke-width="1"/>
  <line x1="36" y1="38" x2="36" y2="34" stroke="#5a5a6a" stroke-width="1"/>
  <line x1="36" y1="38" x2="36" y2="42" stroke="#5a5a6a" stroke-width="1"/>
  <!-- Mast cap -->
  <rect x="28" y="4" width="8" height="4" fill="#3a6a8a"/>
</svg>
