<svg xmlns="http://www.w3.org/2000/svg" viewBox="0 0 64 64">
  <defs>
    <linearGradient id="sd-wall" x1="0%" y1="0%" x2="100%" y2="0%">
      <stop offset="0%" stop-color="#3a2f2a"/>
      <stop offset="30%" stop-color="#6b3a1a"/>
      <stop offset="70%" stop-color="#8b5e3c"/>
      <stop offset="100%" stop-color="#3a2f2a"/>
    </linearGradient>
    <linearGradient id="sd-water" x1="0%" y1="0%" x2="0%" y2="100%">
      <stop offset="0%" stop-color="#3a2f2a"/>
      <stop offset="100%" stop-color="#2e2a1e"/>
    </linearGradient>
    <linearGradient id="sd-plate" x1="0%" y1="0%" x2="0%" y2="100%">
      <stop offset="0%" stop-color="#8b5e3c"/>
      <stop offset="100%" stop-color="#6b3a1a"/>
    </linearGradient>
  </defs>
  <!-- Left wall -->
  <rect x="0" y="20" width="14" height="44" fill="url(#sd-wall)"/>
  <rect x="2" y="22" width="3" height="40" fill="#9a5a30"/>
  <rect x="7" y="24" width="3" height="38" fill="#6b3a1a"/>
  <rect x="11" y="26" width="2" height="36" fill="#8b5e3c"/>
  <!-- Right wall -->
  <rect x="50" y="20" width="14" height="44" fill="url(#sd-wall)"/>
  <rect x="52" y="22" width="3" height="40" fill="#9a5a30"/>
  <rect x="57" y="24" width="3" height="38" fill="#6b3a1a"/>
  <rect x="59" y="26" width="2" height="36" fill="#8b5e3c"/>
  <!-- Basin floor / water -->
  <rect x="14" y="48" width="36" height="16" fill="url(#sd-water)"/>
  <!-- Gantry left -->
  <rect x="6" y="32" width="8" height="4" fill="url(#sd-plate)"/>
  <rect x="8" y="34" width="4" height="14" fill="#3a2f2a"/>
  <!-- Gantry right -->
  <rect x="50" y="32" width="8" height="4" fill="url(#sd-plate)"/>
  <rect x="52" y="34" width="4" height="14" fill="#3a2f2a"/>
  <!-- Center gantry beam -->
  <rect x="20" y="28" width="24" height="5" fill="#6b3a1a"/>
  <rect x="22" y="30" width="20" height="2" fill="#8b5e3c"/>
  <!-- Rivet plates on walls -->
  <circle cx="4" cy="30" r="1.5" fill="#3a2f2a"/>
  <circle cx="4" cy="44" r="1.5" fill="#3a2f2a"/>
  <circle cx="60" cy="30" r="1.5" fill="#3a2f2a"/>
  <circle cx="60" cy="44" r="1.5" fill="#3a2f2a"/>
  <!-- Sloped basin edges -->
  <polygon points="14,48 14,64 20,64 20,52" fill="#6b3a1a"/>
  <polygon points="50,48 50,64 44,64 44,52" fill="#6b3a1a"/>
</svg>
