<svg xmlns="http://www.w3.org/2000/svg" viewBox="0 0 64 64">
  <defs>
    <linearGradient id="shg-frame" x1="0%" y1="0%" x2="100%" y2="0%">
      <stop offset="0%" stop-color="#0a0a0a"/>
      <stop offset="50%" stop-color="#2a2a2a"/>
      <stop offset="100%" stop-color="#1a1a1a"/>
    </linearGradient>
    <linearGradient id="shg-door" x1="0%" y1="0%" x2="100%" y2="0%">
      <stop offset="0%" stop-color="#1a1a1a"/>
      <stop offset="50%" stop-color="#2a2a2a"/>
      <stop offset="100%" stop-color="#1a1a1a"/>
    </linearGradient>
    <linearGradient id="shg-piston" x1="0%" y1="0%" x2="0%" y2="100%">
      <stop offset="0%" stop-color="#2a2a2a"/>
      <stop offset="100%" stop-color="#1a1a1a"/>
    </linearGradient>
  </defs>
  <!-- Heavy frame - top -->
  <rect x="0" y="4" width="64" height="12" fill="url(#shg-frame)"/>
  <!-- Frame sides -->
  <rect x="0" y="16" width="12" height="48" fill="url(#shg-frame)"/>
  <rect x="52" y="16" width="12" height="48" fill="url(#shg-frame)"/>
  <!-- Frame bottom -->
  <rect x="0" y="56" width="64" height="8" fill="url(#shg-frame)"/>
  <!-- Blast doors - left and right halves -->
  <rect x="14" y="18" width="18" height="36" fill="url(#shg-door)"/>
  <rect x="32" y="18" width="18" height="36" fill="url(#shg-door)"/>
  <!-- Center seam -->
  <rect x="30" y="18" width="4" height="36" fill="#0a0a0a"/>
  <!-- Hydraulic pistons left -->
  <rect x="16" y="20" width="4" height="32" fill="url(#shg-piston)"/>
  <rect x="16" y="18" width="6" height="4" fill="#2a2a2a"/>
  <rect x="16" y="50" width="6" height="4" fill="#2a2a2a"/>
  <!-- Hydraulic pistons right -->
  <rect x="44" y="20" width="4" height="32" fill="url(#shg-piston)"/>
  <rect x="42" y="18" width="6" height="4" fill="#2a2a2a"/>
  <rect x="42" y="50" width="6" height="4" fill="#2a2a2a"/>
  <!-- Door reinforcement strips -->
  <rect x="16" y="28" width="14" height="3" fill="#1a1a1a"/>
  <rect x="34" y="28" width="14" height="3" fill="#1a1a1a"/>
  <rect x="16" y="40" width="14" height="3" fill="#1a1a1a"/>
  <rect x="34" y="40" width="14" height="3" fill="#1a1a1a"/>
</svg>
