<svg xmlns="http://www.w3.org/2000/svg" viewBox="0 0 64 64">
  <!-- Main wall body -->
  <rect x="2" y="14" width="60" height="36" fill="#3e3e3e" stroke="#2a2a2a" stroke-width="1.5"/>
  <!-- Top conduit channel -->
  <rect x="4" y="16" width="56" height="4" fill="#333333"/>
  <!-- Bottom conduit channel -->
  <rect x="4" y="44" width="56" height="4" fill="#333333"/>
  <!-- Central trench detail -->
  <rect x="4" y="28" width="56" height="8" fill="#484848"/>
  <!-- Access panels - top row -->
  <rect x="8" y="22" width="8" height="5" fill="#2e2e2e" stroke="#252525" stroke-width="0.5"/>
  <rect x="28" y="22" width="8" height="5" fill="#2e2e2e" stroke="#252525" stroke-width="0.5"/>
  <rect x="48" y="22" width="8" height="5" fill="#2e2e2e" stroke="#252525" stroke-width="0.5"/>
  <!-- Access panels - bottom row -->
  <rect x="8" y="37" width="8" height="5" fill="#2e2e2e" stroke="#252525" stroke-width="0.5"/>
  <rect x="28" y="37" width="8" height="5" fill="#2e2e2e" stroke="#252525" stroke-width="0.5"/>
  <rect x="48" y="37" width="8" height="5" fill="#2e2e2e" stroke="#252525" stroke-width="0.5"/>
  <!-- Defensive turret emplacements -->
  <circle cx="12" cy="32" r="3" fill="#555555" stroke="#444444" stroke-width="0.5"/>
  <circle cx="32" cy="32" r="3" fill="#555555" stroke="#444444" stroke-width="0.5"/>
  <circle cx="52" cy="32" r="3" fill="#555555" stroke="#444444" stroke-width="0.5"/>
  <!-- Vertical structural ribs -->
  <line x1="20" y1="16" x2="20" y2="48" stroke="#4a4a4a" stroke-width="0.5"/>
  <line x1="44" y1="16" x2="44" y2="48" stroke="#4a4a4a" stroke-width="0.5"/>
  <!-- Horizontal conduit line -->
  <line x1="4" y1="32" x2="60" y2="32" stroke="#525252" stroke-width="0.5"/>
</svg>
