<svg xmlns="http://www.w3.org/2000/svg" viewBox="0 0 64 64">
  <defs>
    <linearGradient id="ssm-stack" x1="0%" y1="0%" x2="100%" y2="0%">
      <stop offset="0%" stop-color="#2a2a2a"/>
      <stop offset="50%" stop-color="#4a4a4a"/>
      <stop offset="100%" stop-color="#2a2a2a"/>
    </linearGradient>
    <linearGradient id="ssm-band" x1="0%" y1="0%" x2="0%" y2="100%">
      <stop offset="0%" stop-color="#4a4a4a"/>
      <stop offset="100%" stop-color="#3a3a3a"/>
    </linearGradient>
    <linearGradient id="ssm-smoke" x1="0%" y1="0%" x2="0%" y2="100%">
      <stop offset="0%" stop-color="#5a5a5a"/>
      <stop offset="100%" stop-color="#3a3a3a"/>
    </linearGradient>
  </defs>
  <!-- Base platform -->
  <rect x="20" y="52" width="24" height="8" fill="#2a2a2a"/>
  <rect x="22" y="50" width="20" height="4" fill="#3a3a3a"/>
  <!-- Chimney stack -->
  <rect x="24" y="8" width="16" height="44" fill="url(#ssm-stack)"/>
  <!-- Reinforcement bands -->
  <rect x="22" y="12" width="20" height="3" fill="url(#ssm-band)"/>
  <rect x="22" y="24" width="20" height="3" fill="url(#ssm-band)"/>
  <rect x="22" y="36" width="20" height="3" fill="url(#ssm-band)"/>
  <rect x="22" y="44" width="20" height="3" fill="url(#ssm-band)"/>
  <!-- Warning stripe -->
  <rect x="26" y="28" width="12" height="2" fill="#8a7a20"/>
  <!-- Smoke wisps -->
  <ellipse cx="28" cy="4" rx="4" ry="3" fill="#4a4a4a" opacity="0.7"/>
  <ellipse cx="36" cy="2" rx="5" ry="2" fill="#5a5a5a" opacity="0.5"/>
  <ellipse cx="32" cy="6" rx="3" ry="2" fill="#3a3a3a" opacity="0.6"/>
  <!-- Rivet details -->
  <circle cx="26" cy="13" r="1" fill="#2a2a2a"/>
  <circle cx="38" cy="13" r="1" fill="#2a2a2a"/>
  <circle cx="26" cy="25" r="1" fill="#2a2a2a"/>
  <circle cx="38" cy="25" r="1" fill="#2a2a2a"/>
</svg>
