<svg xmlns="http://www.w3.org/2000/svg" viewBox="0 0 64 64">
  <defs>
    <linearGradient id="ssp-panel" x1="0%" y1="0%" x2="0%" y2="100%">
      <stop offset="0%" stop-color="#2a3a4a"/>
      <stop offset="100%" stop-color="#0c0c14"/>
    </linearGradient>
    <linearGradient id="ssp-cell" x1="0%" y1="0%" x2="100%" y2="100%">
      <stop offset="0%" stop-color="#1a2a3a"/>
      <stop offset="100%" stop-color="#3a6a8a"/>
    </linearGradient>
    <linearGradient id="ssp-arm" x1="0%" y1="0%" x2="100%" y2="0%">
      <stop offset="0%" stop-color="#3a3a4a"/>
      <stop offset="100%" stop-color="#5a5a6a"/>
    </linearGradient>
  </defs>
  <!-- Central mast -->
  <rect x="30" y="40" width="4" height="24" fill="url(#ssp-arm)"/>
  <!-- Angular arm structure -->
  <rect x="8" y="20" width="48" height="4" fill="url(#ssp-arm)"/>
  <rect x="12" y="12" width="4" height="16" fill="url(#ssp-arm)"/>
  <rect x="48" y="12" width="4" height="16" fill="url(#ssp-arm)"/>
  <line x1="16" y1="16" x2="48" y2="16" stroke="#5a5a6a" stroke-width="1"/>
  <!-- Solar panel arrays (folded out) -->
  <rect x="8" y="4" width="20" height="14" fill="url(#ssp-panel)"/>
  <rect x="36" y="4" width="20" height="14" fill="url(#ssp-panel)"/>
  <!-- Grid cells on left panel -->
  <rect x="10" y="6" width="5" height="4" fill="url(#ssp-cell)"/>
  <rect x="17" y="6" width="5" height="4" fill="url(#ssp-cell)"/>
  <rect x="10" y="12" width="5" height="4" fill="url(#ssp-cell)"/>
  <rect x="17" y="12" width="5" height="4" fill="url(#ssp-cell)"/>
  <!-- Grid cells on right panel -->
  <rect x="38" y="6" width="5" height="4" fill="url(#ssp-cell)"/>
  <rect x="45" y="6" width="5" height="4" fill="url(#ssp-cell)"/>
  <rect x="38" y="12" width="5" height="4" fill="url(#ssp-cell)"/>
  <rect x="45" y="12" width="5" height="4" fill="url(#ssp-cell)"/>
  <!-- Panel frames -->
  <rect x="8" y="4" width="20" height="14" fill="none" stroke="#3a6a8a" stroke-width="0.5"/>
  <rect x="36" y="4" width="20" height="14" fill="none" stroke="#3a6a8a" stroke-width="0.5"/>
  <!-- Base -->
  <rect x="26" y="60" width="12" height="4" fill="#0c0c14"/>
</svg>
