<svg xmlns="http://www.w3.org/2000/svg" viewBox="0 0 64 64">
  <defs>
    <linearGradient id="tower-body" x1="0" y1="0" x2="1" y2="1">
      <stop offset="0%" stop-color="#5a5a5a"/>
      <stop offset="50%" stop-color="#4a4a4a"/>
      <stop offset="100%" stop-color="#3a3a3a"/>
    </linearGradient>
    <radialGradient id="platform-top" cx="50%" cy="50%" r="50%">
      <stop offset="0%" stop-color="#606060"/>
      <stop offset="100%" stop-color="#3a3a3a"/>
    </radialGradient>
    <radialGradient id="searchlight-glow" cx="50%" cy="50%" r="50%">
      <stop offset="0%" stop-color="#ffffff" stop-opacity="0.3"/>
      <stop offset="100%" stop-color="#ffffff" stop-opacity="0"/>
    </radialGradient>
  </defs>
  <!-- Support struts visible below platform -->
  <line x1="16" y1="16" x2="32" y2="32" stroke="#3a3a3a" stroke-width="3"/>
  <line x1="48" y1="16" x2="32" y2="32" stroke="#3a3a3a" stroke-width="3"/>
  <line x1="16" y1="48" x2="32" y2="32" stroke="#3a3a3a" stroke-width="3"/>
  <line x1="48" y1="48" x2="32" y2="32" stroke="#3a3a3a" stroke-width="3"/>
  <!-- Diagonal cross-bracing struts -->
  <line x1="20" y1="32" x2="44" y2="32" stroke="#333333" stroke-width="2"/>
  <line x1="32" y1="20" x2="32" y2="44" stroke="#333333" stroke-width="2"/>
  <!-- Octagonal observation platform (top-down) -->
  <polygon points="24,10 40,10 52,24 52,40 40,54 24,54 12,40 12,24" fill="url(#tower-body)" stroke="#2a2a2a" stroke-width="1.5"/>
  <!-- Platform panel lines -->
  <polygon points="24,10 40,10 52,24 52,40 40,54 24,54 12,40 12,24" fill="none" stroke="#555555" stroke-width="0.8"/>
  <line x1="24" y1="10" x2="40" y2="54" stroke="#4a4a4a" stroke-width="0.6" opacity="0.5"/>
  <line x1="40" y1="10" x2="24" y2="54" stroke="#4a4a4a" stroke-width="0.6" opacity="0.5"/>
  <!-- Inner platform deck -->
  <polygon points="28,16 36,16 44,28 44,36 36,48 28,48 20,36 20,28" fill="url(#platform-top)"/>
  <!-- Central hub / searchlight housing -->
  <circle cx="32" cy="32" r="6" fill="#505050" stroke="#2a2a2a" stroke-width="1"/>
  <circle cx="32" cy="32" r="3" fill="#606060"/>
  <!-- Searchlight glow (symmetric) -->
  <circle cx="32" cy="32" r="8" fill="url(#searchlight-glow)"/>
  <!-- Red accent lights at octagon corners -->
  <circle cx="24" cy="10" r="1.5" fill="#cc3333"/>
  <circle cx="40" cy="10" r="1.5" fill="#cc3333"/>
  <circle cx="52" cy="24" r="1.5" fill="#cc3333"/>
  <circle cx="52" cy="40" r="1.5" fill="#cc3333"/>
  <circle cx="40" cy="54" r="1.5" fill="#cc3333"/>
  <circle cx="24" cy="54" r="1.5" fill="#cc3333"/>
  <circle cx="12" cy="40" r="1.5" fill="#cc3333"/>
  <circle cx="12" cy="24" r="1.5" fill="#cc3333"/>
  <!-- Red accent glow -->
  <circle cx="24" cy="10" r="2.5" fill="#cc3333" opacity="0.25"/>
  <circle cx="40" cy="10" r="2.5" fill="#cc3333" opacity="0.25"/>
  <circle cx="52" cy="24" r="2.5" fill="#cc3333" opacity="0.25"/>
  <circle cx="52" cy="40" r="2.5" fill="#cc3333" opacity="0.25"/>
  <circle cx="40" cy="54" r="2.5" fill="#cc3333" opacity="0.25"/>
  <circle cx="24" cy="54" r="2.5" fill="#cc3333" opacity="0.25"/>
  <circle cx="12" cy="40" r="2.5" fill="#cc3333" opacity="0.25"/>
  <circle cx="12" cy="24" r="2.5" fill="#cc3333" opacity="0.25"/>
  <!-- Metallic edge highlights -->
  <line x1="24" y1="10" x2="40" y2="10" stroke="#7a7a7a" stroke-width="0.8" opacity="0.6"/>
  <line x1="12" y1="24" x2="24" y2="10" stroke="#7a7a7a" stroke-width="0.6" opacity="0.4"/>
  <line x1="40" y1="10" x2="52" y2="24" stroke="#7a7a7a" stroke-width="0.6" opacity="0.4"/>
</svg>
