<svg xmlns="http://www.w3.org/2000/svg" viewBox="0 0 64 64">
  <defs>
    <radialGradient id="canopy-outer" cx="50%" cy="50%" r="50%">
      <stop offset="0%" stop-color="#3d6b3d"/>
      <stop offset="70%" stop-color="#2a5a2a"/>
      <stop offset="100%" stop-color="#1a3a1a"/>
    </radialGradient>
    <radialGradient id="canopy-inner" cx="50%" cy="50%" r="50%">
      <stop offset="0%" stop-color="#4d7a4d"/>
      <stop offset="100%" stop-color="#3a6a3a"/>
    </radialGradient>
    <radialGradient id="trunk-center" cx="50%" cy="50%" r="50%">
      <stop offset="0%" stop-color="#6b4a28"/>
      <stop offset="100%" stop-color="#5a3a20"/>
    </radialGradient>
  </defs>
  <!-- Outer canopy — irregular ancient redwood shape -->
  <path d="M32 3 C40 4 50 8 55 16 C59 22 60 30 58 36 C56 42 52 50 46 55 C40 59 36 60 32 61 C28 60 24 59 18 55 C12 50 8 42 6 36 C4 30 5 22 9 16 C14 8 24 4 32 3Z" fill="url(#canopy-outer)"/>
  <!-- Shadow crevices in canopy -->
  <path d="M18 18 C22 22 20 28 16 26 C12 24 14 14 18 18Z" fill="#1a3a1a" opacity="0.6"/>
  <path d="M46 20 C50 24 48 30 44 28 C40 26 42 16 46 20Z" fill="#1a3a1a" opacity="0.6"/>
  <path d="M24 44 C28 48 26 52 22 50 C18 48 20 40 24 44Z" fill="#1a3a1a" opacity="0.5"/>
  <path d="M42 42 C46 46 44 52 40 50 C36 48 38 38 42 42Z" fill="#1a3a1a" opacity="0.5"/>
  <!-- Mid-layer canopy clusters -->
  <ellipse cx="22" cy="22" rx="10" ry="9" fill="#3a6a3a" opacity="0.8"/>
  <ellipse cx="42" cy="22" rx="10" ry="9" fill="#3a6a3a" opacity="0.8"/>
  <ellipse cx="22" cy="42" rx="9" ry="10" fill="#356535" opacity="0.7"/>
  <ellipse cx="42" cy="42" rx="9" ry="10" fill="#356535" opacity="0.7"/>
  <!-- Inner canopy highlight clusters -->
  <ellipse cx="26" cy="26" rx="6" ry="5" fill="url(#canopy-inner)" opacity="0.7"/>
  <ellipse cx="38" cy="26" rx="6" ry="5" fill="url(#canopy-inner)" opacity="0.7"/>
  <ellipse cx="26" cy="38" rx="5" ry="6" fill="#4a7a4a" opacity="0.6"/>
  <ellipse cx="38" cy="38" rx="5" ry="6" fill="#4a7a4a" opacity="0.6"/>
  <!-- Moss/lichen highlights on canopy top -->
  <ellipse cx="20" cy="16" rx="3" ry="2" fill="#6b8b4b" opacity="0.5"/>
  <ellipse cx="44" cy="16" rx="3" ry="2" fill="#6b8b4b" opacity="0.5"/>
  <ellipse cx="32" cy="12" rx="4" ry="2" fill="#6b8b4b" opacity="0.4"/>
  <ellipse cx="16" cy="32" rx="2" ry="3" fill="#5a7b4a" opacity="0.4"/>
  <ellipse cx="48" cy="32" rx="2" ry="3" fill="#5a7b4a" opacity="0.4"/>
  <!-- Trunk visible through canopy gap -->
  <circle cx="32" cy="32" r="5" fill="url(#trunk-center)"/>
  <circle cx="32" cy="32" r="3" fill="#7a5a30"/>
  <!-- Bark ring detail -->
  <circle cx="32" cy="32" r="4" fill="none" stroke="#5a3a20" stroke-width="0.8" opacity="0.6"/>
  <!-- Fine canopy edge texture -->
  <path d="M32 5 C34 7 36 6 38 8" fill="none" stroke="#2a5a2a" stroke-width="1.5" opacity="0.4"/>
  <path d="M26 5 C28 7 30 6 32 5" fill="none" stroke="#2a5a2a" stroke-width="1.5" opacity="0.4"/>
</svg>
