<svg xmlns="http://www.w3.org/2000/svg" viewBox="0 0 64 64">
  <defs>
    <linearGradient id="sr-wall" x1="0%" y1="0%" x2="100%" y2="0%">
      <stop offset="0%" stop-color="#2e2a1e"/>
      <stop offset="50%" stop-color="#4a4a40"/>
      <stop offset="100%" stop-color="#2e2a1e"/>
    </linearGradient>
    <linearGradient id="sr-rubble" x1="0%" y1="0%" x2="0%" y2="100%">
      <stop offset="0%" stop-color="#4a4a40"/>
      <stop offset="100%" stop-color="#2e2a1e"/>
    </linearGradient>
    <linearGradient id="sr-rebar" x1="0%" y1="0%" x2="0%" y2="100%">
      <stop offset="0%" stop-color="#4a4a40"/>
      <stop offset="100%" stop-color="#3a4030"/>
    </linearGradient>
  </defs>
  <!-- Broken left wall -->
  <polygon points="4,64 4,24 20,16 20,64" fill="url(#sr-wall)"/>
  <polygon points="8,60 8,28 16,24 16,60" fill="#3a4030"/>
  <!-- Collapsed center section -->
  <polygon points="20,64 20,20 44,12 44,64" fill="url(#sr-rubble)"/>
  <rect x="24" y="40" width="16" height="24" fill="#2e2a1e"/>
  <!-- Exposed rebar -->
  <line x1="18" y1="18" x2="18" y2="50" stroke="url(#sr-rebar)" stroke-width="1.5"/>
  <line x1="22" y1="22" x2="22" y2="54" stroke="url(#sr-rebar)" stroke-width="1.5"/>
  <line x1="42" y1="14" x2="42" y2="48" stroke="url(#sr-rebar)" stroke-width="1.5"/>
  <line x1="38" y1="16" x2="38" y2="52" stroke="url(#sr-rebar)" stroke-width="1.5"/>
  <!-- Bent beam -->
  <path d="M12 32 L28 28 L32 44" stroke="#4a4a40" stroke-width="2.5" fill="none"/>
  <!-- Right wall remnant -->
  <polygon points="44,64 44,14 58,20 58,64" fill="url(#sr-wall)"/>
  <polygon points="48,60 48,20 54,18 54,60" fill="#5a5530"/>
  <!-- Rubble pile -->
  <ellipse cx="32" cy="58" rx="18" ry="6" fill="#2e2a1e"/>
  <polygon points="16,56 28,54 36,58 48,56" fill="#4a4a40"/>
  <!-- Debris chunks -->
  <rect x="8" y="52" width="6" height="4" fill="#4a4a40" transform="rotate(-15 11 54)"/>
  <rect x="46" y="50" width="5" height="5" fill="#3a4030" transform="rotate(20 48 52)"/>
  <polygon points="30,56 34,56 33,60 31,60" fill="#5a5530"/>
</svg>
