<svg xmlns="http://www.w3.org/2000/svg" viewBox="0 0 64 64">
  <defs>
    <linearGradient id="swt-armor" x1="0%" y1="0%" x2="100%" y2="100%">
      <stop offset="0%" stop-color="#4a4a40"/>
      <stop offset="100%" stop-color="#2e2a1e"/>
    </linearGradient>
    <linearGradient id="swt-hull" x1="0%" y1="0%" x2="0%" y2="100%">
      <stop offset="0%" stop-color="#3a4030"/>
      <stop offset="100%" stop-color="#2e2a1e"/>
    </linearGradient>
    <linearGradient id="swt-tread" x1="0%" y1="0%" x2="0%" y2="100%">
      <stop offset="0%" stop-color="#5a5530"/>
      <stop offset="100%" stop-color="#3a4030"/>
    </linearGradient>
  </defs>
  <!-- Overturned chassis body -->
  <polygon points="8,48 8,36 24,28 40,28 56,36 56,48 40,52 24,52" fill="url(#swt-armor)"/>
  <!-- Hull plates -->
  <polygon points="12,44 12,38 22,34 38,34 48,38 48,44 38,48 22,48" fill="url(#swt-hull)"/>
  <!-- Bent/damaged armor -->
  <path d="M16 40 L28 36 L40 40 L50 38" stroke="#2e2a1e" stroke-width="1.5" fill="none"/>
  <polygon points="20,42 26,40 28,46 22,48" fill="#3a4030"/>
  <!-- Broken turret (detached) -->
  <ellipse cx="18" cy="32" rx="8" ry="6" fill="url(#swt-armor)"/>
  <ellipse cx="18" cy="32" rx="4" ry="3" fill="#2e2a1e"/>
  <path d="M14 30 L22 34" stroke="#4a4a40" stroke-width="1" fill="none"/>
  <!-- Gun barrel (bent) -->
  <path d="M22 32 L32 28 L38 30" stroke="#3a4030" stroke-width="2.5" fill="none" stroke-linecap="round"/>
  <!-- Exposed tread (left) -->
  <rect x="10" y="46" width="6" height="8" fill="url(#swt-tread)"/>
  <line x1="11" y1="48" x2="15" y2="48" stroke="#2e2a1e" stroke-width="0.5"/>
  <line x1="11" y1="51" x2="15" y2="51" stroke="#2e2a1e" stroke-width="0.5"/>
  <line x1="11" y1="54" x2="15" y2="54" stroke="#2e2a1e" stroke-width="0.5"/>
  <!-- Exposed tread (right) -->
  <rect x="48" y="46" width="6" height="8" fill="url(#swt-tread)"/>
  <line x1="49" y1="48" x2="53" y2="48" stroke="#2e2a1e" stroke-width="0.5"/>
  <line x1="49" y1="51" x2="53" y2="51" stroke="#2e2a1e" stroke-width="0.5"/>
  <line x1="49" y1="54" x2="53" y2="54" stroke="#2e2a1e" stroke-width="0.5"/>
  <!-- Road wheels -->
  <circle cx="22" cy="50" r="4" fill="#2e2a1e"/>
  <circle cx="22" cy="50" r="2" fill="#4a4a40"/>
  <circle cx="42" cy="50" r="4" fill="#2e2a1e"/>
  <circle cx="42" cy="50" r="2" fill="#4a4a40"/>
  <!-- Hull damage / hole -->
  <ellipse cx="34" cy="42" rx="5" ry="4" fill="#2e2a1e"/>
  <!-- Rust / scorch -->
  <path d="M28 36 L32 44" stroke="#5a5530" stroke-width="1.5" fill="none"/>
  <ellipse cx="30" cy="38" rx="2" ry="1.5" fill="#5a5530"/>
</svg>
