<svg xmlns="http://www.w3.org/2000/svg" viewBox="0 0 64 64">
  <defs>
    <linearGradient id="sct-tower" x1="0%" y1="0%" x2="100%" y2="0%">
      <stop offset="0%" stop-color="#2a2a2a"/>
      <stop offset="50%" stop-color="#4a4a4a"/>
      <stop offset="100%" stop-color="#2a2a2a"/>
    </linearGradient>
    <linearGradient id="sct-steam" x1="0%" y1="0%" x2="0%" y2="100%">
      <stop offset="0%" stop-color="#5a5a5a"/>
      <stop offset="100%" stop-color="#3a3a3a"/>
    </linearGradient>
  </defs>
  <!-- Hyperbolic tower silhouette: wide base, narrow middle, wide top -->
  <polygon points="12,64 16,54 22,40 26,28 28,14 36,14 38,28 42,40 48,54 52,64" fill="url(#sct-tower)"/>
  <!-- Inner shadow for depth -->
  <polygon points="20,58 24,44 28,32 30,22 34,22 36,32 40,44 44,58" fill="#2a2a2a" opacity="0.5"/>
  <!-- Base ring -->
  <ellipse cx="32" cy="60" rx="18" ry="4" fill="#3a3a3a"/>
  <!-- Steam plumes at top -->
  <ellipse cx="24" cy="2" rx="6" ry="3" fill="#4a4a4a" opacity="0.6"/>
  <ellipse cx="32" cy="0" rx="8" ry="4" fill="#5a5a5a" opacity="0.5"/>
  <ellipse cx="42" cy="2" rx="5" ry="3" fill="#4a4a4a" opacity="0.6"/>
  <!-- Support struts at base -->
  <rect x="14" y="56" width="3" height="8" fill="#2a2a2a"/>
  <rect x="47" y="56" width="3" height="8" fill="#2a2a2a"/>
</svg>
