<svg xmlns="http://www.w3.org/2000/svg" viewBox="0 0 64 64">
  <defs>
    <linearGradient id="scc-box1" x1="0%" y1="0%" x2="100%" y2="100%">
      <stop offset="0%" stop-color="#8b5e3c"/>
      <stop offset="100%" stop-color="#6b3a1a"/>
    </linearGradient>
    <linearGradient id="scc-box2" x1="0%" y1="0%" x2="100%" y2="0%">
      <stop offset="0%" stop-color="#6b3a1a"/>
      <stop offset="100%" stop-color="#9a5a30"/>
    </linearGradient>
    <linearGradient id="scc-rust" x1="0%" y1="0%" x2="0%" y2="100%">
      <stop offset="0%" stop-color="#9a5a30"/>
      <stop offset="100%" stop-color="#6b3a1a"/>
    </linearGradient>
  </defs>
  <!-- Back container (angled) -->
  <polygon points="8,52 8,28 24,20 24,44" fill="url(#scc-box1)"/>
  <!-- Corrugation lines back -->
  <line x1="10" y1="32" x2="22" y2="26" stroke="#3a2f2a" stroke-width="0.8"/>
  <line x1="10" y1="38" x2="22" y2="32" stroke="#3a2f2a" stroke-width="0.8"/>
  <line x1="10" y1="44" x2="22" y2="38" stroke="#3a2f2a" stroke-width="0.8"/>
  <!-- Middle container -->
  <polygon points="24,44 24,16 44,8 44,36" fill="url(#scc-box2)"/>
  <line x1="26" y1="22" x2="42" y2="16" stroke="#3a2f2a" stroke-width="0.8"/>
  <line x1="26" y1="28" x2="42" y2="22" stroke="#3a2f2a" stroke-width="0.8"/>
  <line x1="26" y1="34" x2="42" y2="28" stroke="#3a2f2a" stroke-width="0.8"/>
  <!-- Front container (stacked) -->
  <polygon points="44,36 44,12 60,8 60,32" fill="url(#scc-box1)"/>
  <line x1="46" y1="18" x2="58" y2="14" stroke="#3a2f2a" stroke-width="0.8"/>
  <line x1="46" y1="24" x2="58" y2="20" stroke="#3a2f2a" stroke-width="0.8"/>
  <line x1="46" y1="30" x2="58" y2="26" stroke="#3a2f2a" stroke-width="0.8"/>
  <!-- Rust streaks -->
  <path d="M14 30 L18 44" stroke="#6b3a1a" stroke-width="2" fill="none"/>
  <path d="M30 14 L36 32" stroke="#6b3a1a" stroke-width="1.5" fill="none"/>
  <path d="M48 14 L52 28" stroke="#6b3a1a" stroke-width="1.5" fill="none"/>
  <!-- Container edges / depth -->
  <polygon points="24,20 24,44 28,42 28,18" fill="#3a2f2a"/>
  <polygon points="44,8 44,36 48,34 48,6" fill="#3a2f2a"/>
  <!-- Base shadow -->
  <rect x="8" y="50" width="52" height="6" fill="#3a2f2a"/>
</svg>
