<svg xmlns="http://www.w3.org/2000/svg" viewBox="0 0 64 64">
  <defs>
    <linearGradient id="sh-hull" x1="0%" y1="0%" x2="100%" y2="100%">
      <stop offset="0%" stop-color="#6b3a1a"/>
      <stop offset="50%" stop-color="#8b5e3c"/>
      <stop offset="100%" stop-color="#6b3a1a"/>
    </linearGradient>
    <linearGradient id="sh-plate" x1="0%" y1="0%" x2="0%" y2="100%">
      <stop offset="0%" stop-color="#9a5a30"/>
      <stop offset="100%" stop-color="#6b3a1a"/>
    </linearGradient>
    <linearGradient id="sh-rust" x1="0%" y1="0%" x2="100%" y2="0%">
      <stop offset="0%" stop-color="#8b5e3c"/>
      <stop offset="100%" stop-color="#6b3a1a"/>
    </linearGradient>
  </defs>
  <!-- Curved hull outline -->
  <path d="M8 48 Q8 20 32 12 Q56 20 56 48 L56 56 L8 56 Z" fill="url(#sh-hull)"/>
  <!-- Hull plates / seams -->
  <path d="M12 44 Q14 28 32 22 Q50 28 52 44" stroke="#3a2f2a" stroke-width="1.5" fill="none"/>
  <path d="M16 40 Q18 26 32 20 Q46 26 48 40" stroke="#3a2f2a" stroke-width="1" fill="none"/>
  <!-- Rivet rows -->
  <circle cx="14" cy="36" r="1.5" fill="#3a2f2a"/>
  <circle cx="22" cy="32" r="1.5" fill="#3a2f2a"/>
  <circle cx="32" cy="30" r="1.5" fill="#3a2f2a"/>
  <circle cx="42" cy="32" r="1.5" fill="#3a2f2a"/>
  <circle cx="50" cy="36" r="1.5" fill="#3a2f2a"/>
  <circle cx="16" cy="44" r="1" fill="#3a2f2a"/>
  <circle cx="32" cy="40" r="1" fill="#3a2f2a"/>
  <circle cx="48" cy="44" r="1" fill="#3a2f2a"/>
  <!-- Portholes -->
  <ellipse cx="20" cy="38" rx="4" ry="3" fill="#2e2a1e"/>
  <circle cx="20" cy="38" r="2" fill="#3a2f2a"/>
  <ellipse cx="32" cy="36" rx="4" ry="3" fill="#2e2a1e"/>
  <circle cx="32" cy="36" r="2" fill="#3a2f2a"/>
  <ellipse cx="44" cy="38" rx="4" ry="3" fill="#2e2a1e"/>
  <circle cx="44" cy="38" r="2" fill="#3a2f2a"/>
  <!-- Plate panels -->
  <rect x="10" y="48" width="12" height="6" fill="url(#sh-plate)"/>
  <rect x="24" y="50" width="16" height="4" fill="url(#sh-plate)"/>
  <rect x="42" y="48" width="12" height="6" fill="url(#sh-plate)"/>
  <!-- Rust streak -->
  <path d="M28 24 L30 44" stroke="#6b3a1a" stroke-width="2" fill="none"/>
  <path d="M36 22 L38 42" stroke="#6b3a1a" stroke-width="1.5" fill="none"/>
</svg>
