<svg xmlns="http://www.w3.org/2000/svg" viewBox="0 0 64 64" width="64" height="64">
  <defs>
    <radialGradient id="dome" cx="40%" cy="40%" r="55%">
      <stop offset="0%" stop-color="#fff8ef"/>
      <stop offset="100%" stop-color="#e0d4b8"/>
    </radialGradient>
    <radialGradient id="pool" cx="50%" cy="50%" r="50%">
      <stop offset="0%" stop-color="#7dd8c0"/>
      <stop offset="100%" stop-color="#4da890"/>
    </radialGradient>
  </defs>
  <!-- Outer garden terrace -->
  <circle cx="32" cy="32" r="30" fill="#b8a878" opacity="0.3"/>
  <!-- Stone base platform -->
  <circle cx="32" cy="32" r="26" fill="#c8b890"/>
  <!-- Courtyard floor -->
  <circle cx="32" cy="32" r="22" fill="#d8ccaa"/>
  <!-- Inner wall ring -->
  <circle cx="32" cy="32" r="18" fill="#c0b090"/>
  <!-- Interior floor -->
  <circle cx="32" cy="32" r="16" fill="#ddd0b8"/>
  <!-- Dome shadow -->
  <circle cx="33" cy="33" r="12" fill="#b0a080" opacity="0.35"/>
  <!-- Main dome -->
  <circle cx="32" cy="32" r="12" fill="url(#dome)"/>
  <!-- Dome highlight -->
  <circle cx="29" cy="29" r="5" fill="#ffffff" opacity="0.2"/>
  <!-- Four symmetrical arched walkways -->
  <rect x="30" y="2" width="4" height="12" fill="#c8b890" rx="2"/>
  <rect x="30" y="50" width="4" height="12" fill="#c8b890" rx="2"/>
  <rect x="2" y="30" width="12" height="4" fill="#c8b890" rx="2"/>
  <rect x="50" y="30" width="12" height="4" fill="#c8b890" rx="2"/>
  <!-- Walkway inner caps -->
  <circle cx="32" cy="14" r="3" fill="#d8ccaa"/>
  <circle cx="32" cy="50" r="3" fill="#d8ccaa"/>
  <circle cx="14" cy="32" r="3" fill="#d8ccaa"/>
  <circle cx="50" cy="32" r="3" fill="#d8ccaa"/>
  <!-- Ornamental teal pools at corners -->
  <circle cx="14" cy="14" r="4" fill="url(#pool)" opacity="0.6"/>
  <circle cx="50" cy="14" r="4" fill="url(#pool)" opacity="0.6"/>
  <circle cx="14" cy="50" r="4" fill="url(#pool)" opacity="0.6"/>
  <circle cx="50" cy="50" r="4" fill="url(#pool)" opacity="0.6"/>
  <!-- Pool highlights -->
  <circle cx="13" cy="13" r="1.5" fill="#ffffff" opacity="0.25"/>
  <circle cx="49" cy="13" r="1.5" fill="#ffffff" opacity="0.25"/>
  <circle cx="13" cy="49" r="1.5" fill="#ffffff" opacity="0.25"/>
  <circle cx="49" cy="49" r="1.5" fill="#ffffff" opacity="0.25"/>
  <!-- Dome pinnacle -->
  <circle cx="32" cy="32" r="3.5" fill="#f0e8d8"/>
  <circle cx="32" cy="32" r="2" fill="#5fb8a0" opacity="0.7"/>
  <circle cx="32" cy="32" r="0.8" fill="#ffffff" opacity="0.5"/>
</svg>
