<svg xmlns="http://www.w3.org/2000/svg" viewBox="0 0 64 64">
  <defs>
    <linearGradient id="sc-beam" x1="0%" y1="0%" x2="100%" y2="0%">
      <stop offset="0%" stop-color="#3a2f2a"/>
      <stop offset="50%" stop-color="#6b3a1a"/>
      <stop offset="100%" stop-color="#3a2f2a"/>
    </linearGradient>
    <linearGradient id="sc-rust" x1="0%" y1="0%" x2="0%" y2="100%">
      <stop offset="0%" stop-color="#8b5e3c"/>
      <stop offset="100%" stop-color="#6b3a1a"/>
    </linearGradient>
    <linearGradient id="sc-hook" x1="0%" y1="0%" x2="0%" y2="100%">
      <stop offset="0%" stop-color="#9a5a30"/>
      <stop offset="100%" stop-color="#6b3a1a"/>
    </linearGradient>
  </defs>
  <!-- Base platform -->
  <rect x="4" y="52" width="56" height="8" fill="#3a2f2a"/>
  <rect x="8" y="48" width="48" height="6" fill="url(#sc-beam)"/>
  <!-- Vertical lattice legs -->
  <rect x="12" y="28" width="4" height="26" fill="#3a2f2a"/>
  <rect x="48" y="28" width="4" height="26" fill="#3a2f2a"/>
  <rect x="24" y="36" width="3" height="20" fill="#6b3a1a"/>
  <rect x="37" y="36" width="3" height="20" fill="#6b3a1a"/>
  <!-- Cross braces -->
  <line x1="12" y1="42" x2="27" y2="42" stroke="#6b3a1a" stroke-width="2"/>
  <line x1="37" y1="42" x2="52" y2="42" stroke="#6b3a1a" stroke-width="2"/>
  <line x1="14" y1="38" x2="26" y2="48" stroke="#8b5e3c" stroke-width="1.5"/>
  <line x1="50" y1="38" x2="38" y2="48" stroke="#8b5e3c" stroke-width="1.5"/>
  <!-- Horizontal boom -->
  <rect x="8" y="22" width="48" height="6" fill="url(#sc-rust)"/>
  <rect x="8" y="24" width="48" height="2" fill="#3a2f2a"/>
  <!-- Jib arm -->
  <polygon points="32,22 56,22 56,26 32,26" fill="url(#sc-beam)"/>
  <rect x="54" y="14" width="4" height="14" fill="#6b3a1a"/>
  <!-- Hook assembly -->
  <rect x="52" y="8" width="8" height="8" fill="#3a2f2a"/>
  <path d="M56 8 L58 14 L54 14 Z" fill="url(#sc-hook)"/>
  <rect x="56" y="14" width="2" height="6" fill="#9a5a30"/>
  <ellipse cx="58" cy="22" rx="3" ry="2" fill="#3a2f2a"/>
  <!-- Counterweight -->
  <rect x="10" y="18" width="12" height="10" fill="#6b3a1a"/>
  <rect x="12" y="20" width="8" height="6" fill="#8b5e3c"/>
</svg>
