<svg xmlns="http://www.w3.org/2000/svg" viewBox="0 0 64 64">
  <!-- Octagonal reinforced platform -->
  <polygon points="20,6 44,6 58,20 58,44 44,58 20,58 6,44 6,20" fill="#505050" stroke="#3a3a3a" stroke-width="1.5"/>
  <!-- Inner platform ring -->
  <polygon points="24,12 40,12 50,24 50,40 40,52 24,52 14,40 14,24" fill="#585858" stroke="#4a4a4a" stroke-width="1"/>
  <!-- Platform panel lines -->
  <line x1="32" y1="6" x2="32" y2="58" stroke="#666666" stroke-width="0.6"/>
  <line x1="6" y1="32" x2="58" y2="32" stroke="#666666" stroke-width="0.6"/>
  <!-- Power conduits from platform corners to turret (symmetric) -->
  <line x1="20" y1="6" x2="28" y2="26" stroke="#707070" stroke-width="1.5"/>
  <line x1="44" y1="6" x2="36" y2="26" stroke="#707070" stroke-width="1.5"/>
  <line x1="20" y1="58" x2="28" y2="38" stroke="#707070" stroke-width="1.5"/>
  <line x1="44" y1="58" x2="36" y2="38" stroke="#707070" stroke-width="1.5"/>
  <!-- Turret mount base -->
  <circle cx="32" cy="32" r="10" fill="#606060" stroke="#4a4a4a" stroke-width="1.5"/>
  <!-- Inner turret ring -->
  <circle cx="32" cy="32" r="6" fill="#555555" stroke="#444444" stroke-width="1"/>
  <!-- Twin gun barrels pointing upward (symmetric) -->
  <rect x="26" y="2" width="4" height="24" rx="1" fill="#4a4a4a" stroke="#333333" stroke-width="0.5"/>
  <rect x="34" y="2" width="4" height="24" rx="1" fill="#4a4a4a" stroke="#333333" stroke-width="0.5"/>
  <!-- Barrel muzzle tips -->
  <rect x="25" y="1" width="6" height="3" rx="1" fill="#3a3a3a" stroke="#555555" stroke-width="0.5"/>
  <rect x="33" y="1" width="6" height="3" rx="1" fill="#3a3a3a" stroke="#555555" stroke-width="0.5"/>
  <!-- Red targeting sensors at octagon vertices -->
  <circle cx="20" cy="6" r="1.5" fill="#cc0000"/>
  <circle cx="44" cy="6" r="1.5" fill="#cc0000"/>
  <circle cx="6" cy="20" r="1.5" fill="#cc0000"/>
  <circle cx="58" cy="20" r="1.5" fill="#cc0000"/>
  <circle cx="6" cy="44" r="1.5" fill="#cc0000"/>
  <circle cx="58" cy="44" r="1.5" fill="#cc0000"/>
  <circle cx="20" cy="58" r="1.5" fill="#cc0000"/>
  <circle cx="44" cy="58" r="1.5" fill="#cc0000"/>
  <!-- Sensor glow at top vertices -->
  <circle cx="20" cy="6" r="2.5" fill="#cc0000" opacity="0.2"/>
  <circle cx="44" cy="6" r="2.5" fill="#cc0000" opacity="0.2"/>
  <!-- Central turret core -->
  <circle cx="32" cy="32" r="3" fill="#444444"/>
  <circle cx="32" cy="32" r="1.5" fill="#cc0000" opacity="0.8"/>
</svg>
