<svg xmlns="http://www.w3.org/2000/svg" viewBox="0 0 64 64">
  <!-- Base shadow -->
  <ellipse cx="32" cy="34" rx="18" ry="16" fill="#6b6b5b" opacity="0.3"/>
  <!-- Outer collection ring / pipe framework -->
  <circle cx="32" cy="32" r="22" fill="none" stroke="#8a8a7a" stroke-width="2"/>
  <!-- Collection tanks (4 symmetrical) -->
  <rect x="8" y="28" width="6" height="8" rx="1" fill="#6b6b5b"/>
  <rect x="50" y="28" width="6" height="8" rx="1" fill="#6b6b5b"/>
  <rect x="28" y="8" width="8" height="6" rx="1" fill="#6b6b5b"/>
  <rect x="28" y="50" width="8" height="6" rx="1" fill="#6b6b5b"/>
  <!-- Tank highlights -->
  <rect x="9" y="29" width="4" height="3" rx="1" fill="#a0a090" opacity="0.5"/>
  <rect x="51" y="29" width="4" height="3" rx="1" fill="#a0a090" opacity="0.5"/>
  <rect x="29" y="9" width="4" height="3" rx="1" fill="#a0a090" opacity="0.5"/>
  <rect x="29" y="51" width="4" height="3" rx="1" fill="#a0a090" opacity="0.5"/>
  <!-- Condensation fins (8 radiating) -->
  <line x1="32" y1="14" x2="32" y2="20" stroke="#a0a090" stroke-width="2"/>
  <line x1="32" y1="44" x2="32" y2="50" stroke="#a0a090" stroke-width="2"/>
  <line x1="14" y1="32" x2="20" y2="32" stroke="#a0a090" stroke-width="2"/>
  <line x1="44" y1="32" x2="50" y2="32" stroke="#a0a090" stroke-width="2"/>
  <line x1="19" y1="19" x2="23" y2="23" stroke="#9a9a8a" stroke-width="1.5"/>
  <line x1="45" y1="19" x2="41" y2="23" stroke="#9a9a8a" stroke-width="1.5"/>
  <line x1="19" y1="45" x2="23" y2="41" stroke="#9a9a8a" stroke-width="1.5"/>
  <line x1="45" y1="45" x2="41" y2="41" stroke="#9a9a8a" stroke-width="1.5"/>
  <!-- Inner machinery ring -->
  <circle cx="32" cy="32" r="12" fill="#7a7a6a" stroke="#6b6b5b" stroke-width="1.5"/>
  <!-- Panel lines on inner ring -->
  <line x1="32" y1="20" x2="32" y2="22" stroke="#5a5a4a" stroke-width="1"/>
  <line x1="32" y1="42" x2="32" y2="44" stroke="#5a5a4a" stroke-width="1"/>
  <line x1="20" y1="32" x2="22" y2="32" stroke="#5a5a4a" stroke-width="1"/>
  <line x1="42" y1="32" x2="44" y2="32" stroke="#5a5a4a" stroke-width="1"/>
  <!-- Central column (top-down cross-section) -->
  <circle cx="32" cy="32" r="6" fill="#8a8a7a" stroke="#5a5a4a" stroke-width="1"/>
  <!-- Column highlight -->
  <circle cx="30" cy="30" r="2" fill="#b8a880" opacity="0.5"/>
  <!-- Sand weathering marks -->
  <circle cx="32" cy="32" r="4" fill="none" stroke="#b8a880" stroke-width="0.5" opacity="0.6"/>
  <!-- Rivet details (symmetrical) -->
  <circle cx="26" cy="26" r="1" fill="#5a5a4a"/>
  <circle cx="38" cy="26" r="1" fill="#5a5a4a"/>
  <circle cx="26" cy="38" r="1" fill="#5a5a4a"/>
  <circle cx="38" cy="38" r="1" fill="#5a5a4a"/>
  <!-- Pipe connections from center to tanks -->
  <line x1="20" y1="32" x2="14" y2="32" stroke="#7a7a6a" stroke-width="1.5"/>
  <line x1="44" y1="32" x2="50" y2="32" stroke="#7a7a6a" stroke-width="1.5"/>
  <line x1="32" y1="20" x2="32" y2="14" stroke="#7a7a6a" stroke-width="1.5"/>
  <line x1="32" y1="44" x2="32" y2="50" stroke="#7a7a6a" stroke-width="1.5"/>
</svg>
