<svg xmlns="http://www.w3.org/2000/svg" viewBox="0 0 64 64">
  <!-- Ground shadow -->
  <ellipse cx="33" cy="38" rx="20" ry="12" fill="#4a6a4a" opacity="0.25"/>
  <!-- Arm branch left (thick, extending) -->
  <ellipse cx="14" cy="28" rx="10" ry="6" fill="#4a6a4a"/>
  <ellipse cx="14" cy="28" rx="8" ry="4.5" fill="#5a7a5a"/>
  <!-- Arm branch right (thick, extending) -->
  <ellipse cx="50" cy="36" rx="10" ry="6" fill="#4a6a4a"/>
  <ellipse cx="50" cy="36" rx="8" ry="4.5" fill="#5a7a5a"/>
  <!-- Small arm top-right -->
  <ellipse cx="44" cy="18" rx="6" ry="4" fill="#4a6a4a"/>
  <ellipse cx="44" cy="18" rx="4.5" ry="3" fill="#5a7a5a"/>
  <!-- Main bulbous body -->
  <ellipse cx="32" cy="32" rx="14" ry="16" fill="#4a6a4a"/>
  <ellipse cx="32" cy="32" rx="12" ry="14" fill="#5a7a5a"/>
  <!-- Body highlight (alien sheen) -->
  <ellipse cx="29" cy="28" rx="6" ry="8" fill="#7a9a7a" opacity="0.4"/>
  <!-- Body ridge lines (vertical growth pattern) -->
  <line x1="28" y1="18" x2="28" y2="46" stroke="#4a6a4a" stroke-width="0.75" opacity="0.6"/>
  <line x1="32" y1="16" x2="32" y2="48" stroke="#4a6a4a" stroke-width="0.75" opacity="0.5"/>
  <line x1="36" y1="18" x2="36" y2="46" stroke="#4a6a4a" stroke-width="0.75" opacity="0.6"/>
  <!-- Spines on body edge (small dots) -->
  <circle cx="20" cy="26" r="1" fill="#8a8a6a"/>
  <circle cx="19" cy="32" r="1" fill="#8a8a6a"/>
  <circle cx="20" cy="38" r="1" fill="#8a8a6a"/>
  <circle cx="44" cy="26" r="1" fill="#8a8a6a"/>
  <circle cx="45" cy="32" r="1" fill="#8a8a6a"/>
  <circle cx="44" cy="38" r="1" fill="#8a8a6a"/>
  <circle cx="28" cy="17" r="1" fill="#8a8a6a"/>
  <circle cx="36" cy="17" r="1" fill="#8a8a6a"/>
  <circle cx="28" cy="47" r="1" fill="#8a8a6a"/>
  <circle cx="36" cy="47" r="1" fill="#8a8a6a"/>
  <!-- Spines on left arm -->
  <circle cx="6" cy="26" r="0.8" fill="#8a8a6a"/>
  <circle cx="8" cy="23" r="0.8" fill="#8a8a6a"/>
  <circle cx="6" cy="30" r="0.8" fill="#8a8a6a"/>
  <!-- Spines on right arm -->
  <circle cx="58" cy="34" r="0.8" fill="#8a8a6a"/>
  <circle cx="56" cy="31" r="0.8" fill="#8a8a6a"/>
  <circle cx="58" cy="38" r="0.8" fill="#8a8a6a"/>
  <!-- Alien texture spots (grey-green tint) -->
  <circle cx="30" cy="25" r="2" fill="#8a8a6a" opacity="0.3"/>
  <circle cx="35" cy="35" r="2.5" fill="#8a8a6a" opacity="0.25"/>
  <circle cx="28" cy="40" r="1.5" fill="#8a8a6a" opacity="0.3"/>
</svg>
