<svg xmlns="http://www.w3.org/2000/svg" viewBox="0 0 64 64">
  <defs>
    <linearGradient id="scv-frame" x1="0%" y1="0%" x2="0%" y2="100%">
      <stop offset="0%" stop-color="#4a4a4a"/>
      <stop offset="100%" stop-color="#2a2a2a"/>
    </linearGradient>
    <linearGradient id="scv-belt" x1="0%" y1="0%" x2="100%" y2="100%">
      <stop offset="0%" stop-color="#3a3a3a"/>
      <stop offset="50%" stop-color="#4a4a4a"/>
      <stop offset="100%" stop-color="#3a3a3a"/>
    </linearGradient>
    <linearGradient id="scv-roller" x1="0%" y1="0%" x2="100%" y2="0%">
      <stop offset="0%" stop-color="#2a2a2a"/>
      <stop offset="50%" stop-color="#4a4a4a"/>
      <stop offset="100%" stop-color="#2a2a2a"/>
    </linearGradient>
  </defs>
  <!-- Frame legs -->
  <rect x="8" y="44" width="4" height="20" fill="url(#scv-frame)"/>
  <rect x="28" y="48" width="4" height="16" fill="url(#scv-frame)"/>
  <rect x="52" y="44" width="4" height="20" fill="url(#scv-frame)"/>
  <!-- Cross braces -->
  <rect x="8" y="52" width="48" height="3" fill="#3a3a3a"/>
  <line x1="12" y1="48" x2="30" y2="52" stroke="#4a4a4a" stroke-width="2"/>
  <line x1="32" y1="52" x2="52" y2="48" stroke="#4a4a4a" stroke-width="2"/>
  <!-- Roller supports -->
  <rect x="10" y="36" width="6" height="4" fill="#2a2a2a"/>
  <rect x="26" y="38" width="6" height="4" fill="#2a2a2a"/>
  <rect x="48" y="36" width="6" height="4" fill="#2a2a2a"/>
  <!-- Rollers -->
  <rect x="12" y="34" width="2" height="8" fill="url(#scv-roller)"/>
  <rect x="28" y="36" width="2" height="8" fill="url(#scv-roller)"/>
  <rect x="50" y="34" width="2" height="8" fill="url(#scv-roller)"/>
  <!-- Angled belt surface -->
  <polygon points="14,32 50,28 52,36 16,40" fill="url(#scv-belt)"/>
  <!-- Belt texture lines -->
  <line x1="18" y1="34" x2="48" y2="31" stroke="#3a3a3a" stroke-width="1"/>
  <line x1="20" y1="36" x2="46" y2="33" stroke="#3a3a3a" stroke-width="1"/>
  <!-- Warning stripe on frame -->
  <rect x="8" y="54" width="48" height="1" fill="#8a7a20"/>
</svg>
