<svg xmlns="http://www.w3.org/2000/svg" viewBox="0 0 64 64">
  <!-- Outer hangar structure - curved Goa'uld architecture -->
  <ellipse cx="32" cy="34" rx="28" ry="24" fill="#b8860b" stroke="#8b6508" stroke-width="1.5"/>
  <!-- Inner wall layer -->
  <ellipse cx="32" cy="34" rx="24" ry="20" fill="#cd9b1d" stroke="#a07808" stroke-width="1"/>
  <!-- Bronze panel rings (organic curves) -->
  <ellipse cx="32" cy="34" rx="20" ry="16" fill="none" stroke="#8b6508" stroke-width="0.6"/>
  <ellipse cx="32" cy="34" rx="14" ry="11" fill="none" stroke="#8b6508" stroke-width="0.5"/>
  <!-- Translucent roof showing interior -->
  <ellipse cx="32" cy="34" rx="16" ry="13" fill="#a08510" opacity="0.6"/>
  <!-- Death Glider silhouette visible through roof -->
  <polygon points="32,26 42,40 44,44 32,38 20,44 22,40" fill="#5a4a0a" opacity="0.45"/>
  <!-- Death Glider swept wing tips -->
  <line x1="42" y1="40" x2="46" y2="46" stroke="#4a3a08" stroke-width="1.5" opacity="0.35"/>
  <line x1="22" y1="40" x2="18" y2="46" stroke="#4a3a08" stroke-width="1.5" opacity="0.35"/>
  <!-- Energy field entrance (top, cyan barrier) -->
  <ellipse cx="32" cy="10" rx="12" ry="3" fill="#00ccee" opacity="0.5"/>
  <ellipse cx="32" cy="10" rx="10" ry="2" fill="#66eeff" opacity="0.4"/>
  <!-- Goa'uld golden accent ridges (symmetric) -->
  <line x1="8" y1="20" x2="8" y2="48" stroke="#daa520" stroke-width="1.5" opacity="0.6"/>
  <line x1="56" y1="20" x2="56" y2="48" stroke="#daa520" stroke-width="1.5" opacity="0.6"/>
  <!-- Goa'uld eye motifs on flanks (symmetric) -->
  <ellipse cx="12" cy="34" rx="3" ry="4" fill="#daa520" opacity="0.4"/>
  <ellipse cx="52" cy="34" rx="3" ry="4" fill="#daa520" opacity="0.4"/>
  <circle cx="12" cy="34" r="1.5" fill="#ffcc00" opacity="0.6"/>
  <circle cx="52" cy="34" r="1.5" fill="#ffcc00" opacity="0.6"/>
  <!-- Central Goa'uld emblem -->
  <circle cx="32" cy="34" r="3" fill="#daa520" stroke="#8b6508" stroke-width="0.8"/>
  <circle cx="32" cy="34" r="1.5" fill="#ffcc00"/>
  <!-- Structural ribs -->
  <line x1="32" y1="10" x2="32" y2="58" stroke="#8b6508" stroke-width="0.8" opacity="0.5"/>
  <line x1="4" y1="34" x2="60" y2="34" stroke="#8b6508" stroke-width="0.6" opacity="0.4"/>
</svg>
