<svg xmlns="http://www.w3.org/2000/svg" viewBox="0 0 64 64">
  <defs>
    <linearGradient id="scy-tower" x1="0%" y1="0%" x2="100%" y2="0%">
      <stop offset="0%" stop-color="#0a0a0a"/>
      <stop offset="50%" stop-color="#2a2a2a"/>
      <stop offset="100%" stop-color="#1a1a1a"/>
    </linearGradient>
    <linearGradient id="scy-eye" x1="0%" y1="0%" x2="0%" y2="100%">
      <stop offset="0%" stop-color="#cc0000"/>
      <stop offset="100%" stop-color="#8a0000"/>
    </linearGradient>
    <linearGradient id="scy-panel" x1="0%" y1="0%" x2="100%" y2="0%">
      <stop offset="0%" stop-color="#1a1a1a"/>
      <stop offset="100%" stop-color="#2a2a2a"/>
    </linearGradient>
  </defs>
  <!-- Base platform -->
  <rect x="20" y="56" width="24" height="8" fill="#0a0a0a"/>
  <rect x="22" y="52" width="20" height="6" fill="#1a1a1a"/>
  <!-- Tower body - angular facets -->
  <polygon points="32,8 44,52 52,52 32,4 12,52 20,52" fill="url(#scy-tower)"/>
  <!-- Center seam -->
  <rect x="30" y="12" width="4" height="44" fill="#0a0a0a"/>
  <!-- Red sensor eye -->
  <ellipse cx="32" cy="14" rx="6" ry="4" fill="url(#scy-eye)"/>
  <ellipse cx="32" cy="13" rx="3" ry="2" fill="#cc0000"/>
  <!-- Angular panels -->
  <polygon points="18,48 26,48 22,36" fill="url(#scy-panel)"/>
  <polygon points="46,48 38,48 42,36" fill="url(#scy-panel)"/>
  <!-- Base detail -->
  <rect x="24" y="50" width="16" height="2" fill="#2a2a2a"/>
</svg>
